{
    "asset" : {
        "generator" : "Khronos glTF Blender I/O v1.1.46",
        "version" : "2.0"
    },
    "scene" : 0,
    "scenes" : [
        {
            "name" : "Scene",
            "nodes" : [
                0
            ]
        }
    ],
    "nodes" : [
        {
            "mesh" : 0,
            "name" : "61_kohlrabi"
        }
    ],
    "materials" : [
        {
            "doubleSided" : true,
            "emissiveFactor" : [
                0,
                0,
                0
            ],
            "name" : "61_kohlrabi",
            "pbrMetallicRoughness" : {
                "baseColorTexture" : {
                    "index" : 0,
                    "texCoord" : 0
                },
                "metallicFactor" : 0,
                "roughnessFactor" : 0.5
            }
        }
    ],
    "meshes" : [
        {
            "name" : "tmp.o.034",
            "primitives" : [
                {
                    "attributes" : {
                        "POSITION" : 0,
                        "NORMAL" : 1,
                        "TEXCOORD_0" : 2,
                        "JOINTS_0" : 3,
                        "WEIGHTS_0" : 4
                    },
                    "indices" : 5,
                    "material" : 0
                }
            ]
        }
    ],
    "textures" : [
        {
            "source" : 0
        }
    ],
    "images" : [
        {
            "bufferView" : 6,
            "mimeType" : "image/jpeg",
            "name" : "61_kohlrabi_albedo"
        }
    ],
    "accessors" : [
        {
            "bufferView" : 0,
            "componentType" : 5126,
            "count" : 1078,
            "max" : [
                0.45065128803253174,
                0.49433964490890503,
                0.4806419312953949
            ],
            "min" : [
                -0.4432550072669983,
                -0.5673384666442871,
                -0.3744005858898163
            ],
            "type" : "VEC3"
        },
        {
            "bufferView" : 1,
            "componentType" : 5126,
            "count" : 1078,
            "type" : "VEC3"
        },
        {
            "bufferView" : 2,
            "componentType" : 5126,
            "count" : 1078,
            "type" : "VEC2"
        },
        {
            "bufferView" : 3,
            "componentType" : 5123,
            "count" : 1078,
            "type" : "VEC4"
        },
        {
            "bufferView" : 4,
            "componentType" : 5126,
            "count" : 1078,
            "type" : "VEC4"
        },
        {
            "bufferView" : 5,
            "componentType" : 5123,
            "count" : 2994,
            "type" : "SCALAR"
        }
    ],
    "bufferViews" : [
        {
            "buffer" : 0,
            "byteLength" : 12936,
            "byteOffset" : 0
        },
        {
            "buffer" : 0,
            "byteLength" : 12936,
            "byteOffset" : 12936
        },
        {
            "buffer" : 0,
            "byteLength" : 8624,
            "byteOffset" : 25872
        },
        {
            "buffer" : 0,
            "byteLength" : 8624,
            "byteOffset" : 34496
        },
        {
            "buffer" : 0,
            "byteLength" : 17248,
            "byteOffset" : 43120
        },
        {
            "buffer" : 0,
            "byteLength" : 5988,
            "byteOffset" : 60368
        },
        {
            "buffer" : 0,
            "byteLength" : 256037,
            "byteOffset" : 66356
        }
    ],
    "buffers" : [
        {
            "byteLength" : 322396,
            "uri" : "data:application/octet-stream;base64,"
        }
    ]
}
