{
    "asset" : {
        "generator" : "Khronos glTF Blender I/O v1.1.46",
        "version" : "2.0"
    },
    "scene" : 0,
    "scenes" : [
        {
            "name" : "Scene",
            "nodes" : [
                0
            ]
        }
    ],
    "nodes" : [
        {
            "mesh" : 0,
            "name" : "23_pomegranate"
        }
    ],
    "materials" : [
        {
            "doubleSided" : true,
            "emissiveFactor" : [
                0,
                0,
                0
            ],
            "name" : "23_pomegranate",
            "pbrMetallicRoughness" : {
                "baseColorTexture" : {
                    "index" : 0,
                    "texCoord" : 0
                },
                "metallicFactor" : 0,
                "roughnessFactor" : 0.5
            }
        }
    ],
    "meshes" : [
        {
            "name" : "tmp.o.018",
            "primitives" : [
                {
                    "attributes" : {
                        "POSITION" : 0,
                        "NORMAL" : 1,
                        "TEXCOORD_0" : 2,
                        "JOINTS_0" : 3,
                        "WEIGHTS_0" : 4
                    },
                    "indices" : 5,
                    "material" : 0
                }
            ]
        }
    ],
    "textures" : [
        {
            "source" : 0
        }
    ],
    "images" : [
        {
            "bufferView" : 6,
            "mimeType" : "image/jpeg",
            "name" : "23_pomegranate_albedo"
        }
    ],
    "accessors" : [
        {
            "bufferView" : 0,
            "componentType" : 5126,
            "count" : 855,
            "max" : [
                0.5054671168327332,
                0.4812510907649994,
                0.48231011629104614
            ],
            "min" : [
                -0.4911433458328247,
                -0.45148563385009766,
                -0.44898921251296997
            ],
            "type" : "VEC3"
        },
        {
            "bufferView" : 1,
            "componentType" : 5126,
            "count" : 855,
            "type" : "VEC3"
        },
        {
            "bufferView" : 2,
            "componentType" : 5126,
            "count" : 855,
            "type" : "VEC2"
        },
        {
            "bufferView" : 3,
            "componentType" : 5123,
            "count" : 855,
            "type" : "VEC4"
        },
        {
            "bufferView" : 4,
            "componentType" : 5126,
            "count" : 855,
            "type" : "VEC4"
        },
        {
            "bufferView" : 5,
            "componentType" : 5123,
            "count" : 3000,
            "type" : "SCALAR"
        }
    ],
    "bufferViews" : [
        {
            "buffer" : 0,
            "byteLength" : 10260,
            "byteOffset" : 0
        },
        {
            "buffer" : 0,
            "byteLength" : 10260,
            "byteOffset" : 10260
        },
        {
            "buffer" : 0,
            "byteLength" : 6840,
            "byteOffset" : 20520
        },
        {
            "buffer" : 0,
            "byteLength" : 6840,
            "byteOffset" : 27360
        },
        {
            "buffer" : 0,
            "byteLength" : 13680,
            "byteOffset" : 34200
        },
        {
            "buffer" : 0,
            "byteLength" : 6000,
            "byteOffset" : 47880
        },
        {
            "buffer" : 0,
            "byteLength" : 204106,
            "byteOffset" : 53880
        }
    ],
    "buffers" : [
        {
            "byteLength" : 257988,
            "uri" : "data:application/octet-stream;base64,"
        }
    ]
}
