{
    "asset" : {
        "generator" : "Khronos glTF Blender I/O v1.1.46",
        "version" : "2.0"
    },
    "scene" : 0,
    "scenes" : [
        {
            "name" : "Scene",
            "nodes" : [
                0
            ]
        }
    ],
    "nodes" : [
        {
            "mesh" : 0,
            "name" : "banana01_lr"
        }
    ],
    "materials" : [
        {
            "doubleSided" : true,
            "emissiveFactor" : [
                0,
                0,
                0
            ],
            "name" : "banana01_lr",
            "normalTexture" : {
                "index" : 0,
                "texCoord" : 0
            },
            "pbrMetallicRoughness" : {
                "baseColorFactor" : [
                    0.5,
                    0.5,
                    0.5,
                    1
                ],
                "baseColorTexture" : {
                    "index" : 1,
                    "texCoord" : 0
                },
                "metallicFactor" : 0,
                "roughnessFactor" : 0.5
            }
        }
    ],
    "meshes" : [
        {
            "name" : "tmp.o.099",
            "primitives" : [
                {
                    "attributes" : {
                        "POSITION" : 0,
                        "NORMAL" : 1,
                        "TEXCOORD_0" : 2,
                        "JOINTS_0" : 3,
                        "WEIGHTS_0" : 4
                    },
                    "indices" : 5,
                    "material" : 0
                }
            ]
        }
    ],
    "textures" : [
        {
            "source" : 0
        },
        {
            "source" : 1
        }
    ],
    "images" : [
        {
            "bufferView" : 6,
            "mimeType" : "image/jpeg",
            "name" : "banana01_lr_normals"
        },
        {
            "bufferView" : 7,
            "mimeType" : "image/jpeg",
            "name" : "banana01_lr_albedo"
        }
    ],
    "accessors" : [
        {
            "bufferView" : 0,
            "componentType" : 5126,
            "count" : 768,
            "max" : [
                0.6444793343544006,
                0.1324748396873474,
                0.2575015127658844
            ],
            "min" : [
                -0.46449610590934753,
                -0.11261389404535294,
                -0.5362120866775513
            ],
            "type" : "VEC3"
        },
        {
            "bufferView" : 1,
            "componentType" : 5126,
            "count" : 768,
            "type" : "VEC3"
        },
        {
            "bufferView" : 2,
            "componentType" : 5126,
            "count" : 768,
            "type" : "VEC2"
        },
        {
            "bufferView" : 3,
            "componentType" : 5123,
            "count" : 768,
            "type" : "VEC4"
        },
        {
            "bufferView" : 4,
            "componentType" : 5126,
            "count" : 768,
            "type" : "VEC4"
        },
        {
            "bufferView" : 5,
            "componentType" : 5123,
            "count" : 3000,
            "type" : "SCALAR"
        }
    ],
    "bufferViews" : [
        {
            "buffer" : 0,
            "byteLength" : 9216,
            "byteOffset" : 0
        },
        {
            "buffer" : 0,
            "byteLength" : 9216,
            "byteOffset" : 9216
        },
        {
            "buffer" : 0,
            "byteLength" : 6144,
            "byteOffset" : 18432
        },
        {
            "buffer" : 0,
            "byteLength" : 6144,
            "byteOffset" : 24576
        },
        {
            "buffer" : 0,
            "byteLength" : 12288,
            "byteOffset" : 30720
        },
        {
            "buffer" : 0,
            "byteLength" : 6000,
            "byteOffset" : 43008
        },
        {
            "buffer" : 0,
            "byteLength" : 112530,
            "byteOffset" : 49008
        },
        {
            "buffer" : 0,
            "byteLength" : 140606,
            "byteOffset" : 161540
        }
    ],
    "buffers" : [
        {
            "byteLength" : 302148,
            "uri" : "data:application/octet-stream;base64,"
        }
    ]
}
