{
    "asset" : {
        "generator" : "Khronos glTF Blender I/O v1.1.46",
        "version" : "2.0"
    },
    "scene" : 0,
    "scenes" : [
        {
            "name" : "Scene",
            "nodes" : [
                0
            ]
        }
    ],
    "nodes" : [
        {
            "mesh" : 0,
            "name" : "75_radicchio"
        }
    ],
    "materials" : [
        {
            "doubleSided" : true,
            "emissiveFactor" : [
                0,
                0,
                0
            ],
            "name" : "75_radicchio",
            "pbrMetallicRoughness" : {
                "baseColorTexture" : {
                    "index" : 0,
                    "texCoord" : 0
                },
                "metallicFactor" : 0,
                "roughnessFactor" : 0.5
            }
        }
    ],
    "meshes" : [
        {
            "name" : "tmp.o.042",
            "primitives" : [
                {
                    "attributes" : {
                        "POSITION" : 0,
                        "NORMAL" : 1,
                        "TEXCOORD_0" : 2,
                        "JOINTS_0" : 3,
                        "WEIGHTS_0" : 4
                    },
                    "indices" : 5,
                    "material" : 0
                }
            ]
        }
    ],
    "textures" : [
        {
            "source" : 0
        }
    ],
    "images" : [
        {
            "bufferView" : 6,
            "mimeType" : "image/jpeg",
            "name" : "75_radicchio_albedo"
        }
    ],
    "accessors" : [
        {
            "bufferView" : 0,
            "componentType" : 5126,
            "count" : 1123,
            "max" : [
                0.3906414210796356,
                0.4741015136241913,
                0.39764153957366943
            ],
            "min" : [
                -0.40877678990364075,
                -0.3440437912940979,
                -0.4392756521701813
            ],
            "type" : "VEC3"
        },
        {
            "bufferView" : 1,
            "componentType" : 5126,
            "count" : 1123,
            "type" : "VEC3"
        },
        {
            "bufferView" : 2,
            "componentType" : 5126,
            "count" : 1123,
            "type" : "VEC2"
        },
        {
            "bufferView" : 3,
            "componentType" : 5123,
            "count" : 1123,
            "type" : "VEC4"
        },
        {
            "bufferView" : 4,
            "componentType" : 5126,
            "count" : 1123,
            "type" : "VEC4"
        },
        {
            "bufferView" : 5,
            "componentType" : 5123,
            "count" : 3000,
            "type" : "SCALAR"
        }
    ],
    "bufferViews" : [
        {
            "buffer" : 0,
            "byteLength" : 13476,
            "byteOffset" : 0
        },
        {
            "buffer" : 0,
            "byteLength" : 13476,
            "byteOffset" : 13476
        },
        {
            "buffer" : 0,
            "byteLength" : 8984,
            "byteOffset" : 26952
        },
        {
            "buffer" : 0,
            "byteLength" : 8984,
            "byteOffset" : 35936
        },
        {
            "buffer" : 0,
            "byteLength" : 17968,
            "byteOffset" : 44920
        },
        {
            "buffer" : 0,
            "byteLength" : 6000,
            "byteOffset" : 62888
        },
        {
            "buffer" : 0,
            "byteLength" : 286654,
            "byteOffset" : 68888
        }
    ],
    "buffers" : [
        {
            "byteLength" : 355544,
            "uri" : "data:application/octet-stream;base64,"
        }
    ]
}
