{
    "asset" : {
        "generator" : "Khronos glTF Blender I/O v1.1.46",
        "version" : "2.0"
    },
    "scene" : 0,
    "scenes" : [
        {
            "name" : "Scene",
            "nodes" : [
                0
            ]
        }
    ],
    "nodes" : [
        {
            "mesh" : 0,
            "name" : "19_onion"
        }
    ],
    "materials" : [
        {
            "doubleSided" : true,
            "emissiveFactor" : [
                0,
                0,
                0
            ],
            "name" : "19_onion",
            "pbrMetallicRoughness" : {
                "baseColorTexture" : {
                    "index" : 0,
                    "texCoord" : 0
                },
                "metallicFactor" : 0,
                "roughnessFactor" : 0.5
            }
        }
    ],
    "meshes" : [
        {
            "name" : "tmp.o.049",
            "primitives" : [
                {
                    "attributes" : {
                        "POSITION" : 0,
                        "NORMAL" : 1,
                        "TEXCOORD_0" : 2,
                        "JOINTS_0" : 3,
                        "WEIGHTS_0" : 4
                    },
                    "indices" : 5,
                    "material" : 0
                }
            ]
        }
    ],
    "textures" : [
        {
            "source" : 0
        }
    ],
    "images" : [
        {
            "bufferView" : 6,
            "mimeType" : "image/jpeg",
            "name" : "19_onion_albedo"
        }
    ],
    "accessors" : [
        {
            "bufferView" : 0,
            "componentType" : 5126,
            "count" : 975,
            "max" : [
                0.4733484089374542,
                0.531598687171936,
                0.47494781017303467
            ],
            "min" : [
                -0.45897576212882996,
                -0.48942792415618896,
                -0.4770912826061249
            ],
            "type" : "VEC3"
        },
        {
            "bufferView" : 1,
            "componentType" : 5126,
            "count" : 975,
            "type" : "VEC3"
        },
        {
            "bufferView" : 2,
            "componentType" : 5126,
            "count" : 975,
            "type" : "VEC2"
        },
        {
            "bufferView" : 3,
            "componentType" : 5123,
            "count" : 975,
            "type" : "VEC4"
        },
        {
            "bufferView" : 4,
            "componentType" : 5126,
            "count" : 975,
            "type" : "VEC4"
        },
        {
            "bufferView" : 5,
            "componentType" : 5123,
            "count" : 3000,
            "type" : "SCALAR"
        }
    ],
    "bufferViews" : [
        {
            "buffer" : 0,
            "byteLength" : 11700,
            "byteOffset" : 0
        },
        {
            "buffer" : 0,
            "byteLength" : 11700,
            "byteOffset" : 11700
        },
        {
            "buffer" : 0,
            "byteLength" : 7800,
            "byteOffset" : 23400
        },
        {
            "buffer" : 0,
            "byteLength" : 7800,
            "byteOffset" : 31200
        },
        {
            "buffer" : 0,
            "byteLength" : 15600,
            "byteOffset" : 39000
        },
        {
            "buffer" : 0,
            "byteLength" : 6000,
            "byteOffset" : 54600
        },
        {
            "buffer" : 0,
            "byteLength" : 164628,
            "byteOffset" : 60600
        }
    ],
    "buffers" : [
        {
            "byteLength" : 225228,
            "uri" : "data:application/octet-stream;base64,"
        }
    ]
}
