{
    "asset" : {
        "generator" : "Khronos glTF Blender I/O v1.1.46",
        "version" : "2.0"
    },
    "scene" : 0,
    "scenes" : [
        {
            "name" : "Scene",
            "nodes" : [
                0
            ]
        }
    ],
    "nodes" : [
        {
            "mesh" : 0,
            "name" : "05_turnip"
        }
    ],
    "materials" : [
        {
            "doubleSided" : true,
            "emissiveFactor" : [
                0,
                0,
                0
            ],
            "name" : "05_turnip",
            "pbrMetallicRoughness" : {
                "baseColorTexture" : {
                    "index" : 0,
                    "texCoord" : 0
                },
                "metallicFactor" : 0,
                "roughnessFactor" : 0.5
            }
        }
    ],
    "meshes" : [
        {
            "name" : "tmp.o.026",
            "primitives" : [
                {
                    "attributes" : {
                        "POSITION" : 0,
                        "NORMAL" : 1,
                        "TEXCOORD_0" : 2,
                        "JOINTS_0" : 3,
                        "WEIGHTS_0" : 4
                    },
                    "indices" : 5,
                    "material" : 0
                }
            ]
        }
    ],
    "textures" : [
        {
            "source" : 0
        }
    ],
    "images" : [
        {
            "bufferView" : 6,
            "mimeType" : "image/jpeg",
            "name" : "05_turnip_albedo"
        }
    ],
    "accessors" : [
        {
            "bufferView" : 0,
            "componentType" : 5126,
            "count" : 742,
            "max" : [
                0.46005260944366455,
                0.6190512776374817,
                0.4502716660499573
            ],
            "min" : [
                -0.4263230562210083,
                -0.5102431774139404,
                -0.45500633120536804
            ],
            "type" : "VEC3"
        },
        {
            "bufferView" : 1,
            "componentType" : 5126,
            "count" : 742,
            "type" : "VEC3"
        },
        {
            "bufferView" : 2,
            "componentType" : 5126,
            "count" : 742,
            "type" : "VEC2"
        },
        {
            "bufferView" : 3,
            "componentType" : 5123,
            "count" : 742,
            "type" : "VEC4"
        },
        {
            "bufferView" : 4,
            "componentType" : 5126,
            "count" : 742,
            "type" : "VEC4"
        },
        {
            "bufferView" : 5,
            "componentType" : 5123,
            "count" : 3000,
            "type" : "SCALAR"
        }
    ],
    "bufferViews" : [
        {
            "buffer" : 0,
            "byteLength" : 8904,
            "byteOffset" : 0
        },
        {
            "buffer" : 0,
            "byteLength" : 8904,
            "byteOffset" : 8904
        },
        {
            "buffer" : 0,
            "byteLength" : 5936,
            "byteOffset" : 17808
        },
        {
            "buffer" : 0,
            "byteLength" : 5936,
            "byteOffset" : 23744
        },
        {
            "buffer" : 0,
            "byteLength" : 11872,
            "byteOffset" : 29680
        },
        {
            "buffer" : 0,
            "byteLength" : 6000,
            "byteOffset" : 41552
        },
        {
            "buffer" : 0,
            "byteLength" : 173665,
            "byteOffset" : 47552
        }
    ],
    "buffers" : [
        {
            "byteLength" : 221220,
            "uri" : "data:application/octet-stream;base64,"
        }
    ]
}
