{
    "asset" : {
        "generator" : "Khronos glTF Blender I/O v1.1.46",
        "version" : "2.0"
    },
    "scene" : 0,
    "scenes" : [
        {
            "name" : "Scene",
            "nodes" : [
                0
            ]
        }
    ],
    "nodes" : [
        {
            "mesh" : 0,
            "name" : "13_fennel"
        }
    ],
    "materials" : [
        {
            "doubleSided" : true,
            "emissiveFactor" : [
                0,
                0,
                0
            ],
            "name" : "13_fennel",
            "pbrMetallicRoughness" : {
                "baseColorTexture" : {
                    "index" : 0,
                    "texCoord" : 0
                },
                "metallicFactor" : 0,
                "roughnessFactor" : 0.5
            }
        }
    ],
    "meshes" : [
        {
            "name" : "tmp.o.017",
            "primitives" : [
                {
                    "attributes" : {
                        "POSITION" : 0,
                        "NORMAL" : 1,
                        "TEXCOORD_0" : 2,
                        "JOINTS_0" : 3,
                        "WEIGHTS_0" : 4
                    },
                    "indices" : 5,
                    "material" : 0
                }
            ]
        }
    ],
    "textures" : [
        {
            "source" : 0
        }
    ],
    "images" : [
        {
            "bufferView" : 6,
            "mimeType" : "image/jpeg",
            "name" : "13_fennel_albedo"
        }
    ],
    "accessors" : [
        {
            "bufferView" : 0,
            "componentType" : 5126,
            "count" : 1150,
            "max" : [
                0.38968735933303833,
                0.820106565952301,
                0.417182981967926
            ],
            "min" : [
                -0.3868717551231384,
                -0.3825649619102478,
                -0.4090840220451355
            ],
            "type" : "VEC3"
        },
        {
            "bufferView" : 1,
            "componentType" : 5126,
            "count" : 1150,
            "type" : "VEC3"
        },
        {
            "bufferView" : 2,
            "componentType" : 5126,
            "count" : 1150,
            "type" : "VEC2"
        },
        {
            "bufferView" : 3,
            "componentType" : 5123,
            "count" : 1150,
            "type" : "VEC4"
        },
        {
            "bufferView" : 4,
            "componentType" : 5126,
            "count" : 1150,
            "type" : "VEC4"
        },
        {
            "bufferView" : 5,
            "componentType" : 5123,
            "count" : 2994,
            "type" : "SCALAR"
        }
    ],
    "bufferViews" : [
        {
            "buffer" : 0,
            "byteLength" : 13800,
            "byteOffset" : 0
        },
        {
            "buffer" : 0,
            "byteLength" : 13800,
            "byteOffset" : 13800
        },
        {
            "buffer" : 0,
            "byteLength" : 9200,
            "byteOffset" : 27600
        },
        {
            "buffer" : 0,
            "byteLength" : 9200,
            "byteOffset" : 36800
        },
        {
            "buffer" : 0,
            "byteLength" : 18400,
            "byteOffset" : 46000
        },
        {
            "buffer" : 0,
            "byteLength" : 5988,
            "byteOffset" : 64400
        },
        {
            "buffer" : 0,
            "byteLength" : 213833,
            "byteOffset" : 70388
        }
    ],
    "buffers" : [
        {
            "byteLength" : 284224,
            "uri" : "data:application/octet-stream;base64,"
        }
    ]
}
