{
    "asset" : {
        "generator" : "Khronos glTF Blender I/O v1.1.46",
        "version" : "2.0"
    },
    "scene" : 0,
    "scenes" : [
        {
            "name" : "Scene",
            "nodes" : [
                0
            ]
        }
    ],
    "nodes" : [
        {
            "mesh" : 0,
            "name" : "50_cabbage"
        }
    ],
    "materials" : [
        {
            "doubleSided" : true,
            "emissiveFactor" : [
                0,
                0,
                0
            ],
            "name" : "50_cabbage",
            "pbrMetallicRoughness" : {
                "baseColorTexture" : {
                    "index" : 0,
                    "texCoord" : 0
                },
                "metallicFactor" : 0,
                "roughnessFactor" : 0.5
            }
        }
    ],
    "meshes" : [
        {
            "name" : "tmp.o.069",
            "primitives" : [
                {
                    "attributes" : {
                        "POSITION" : 0,
                        "NORMAL" : 1,
                        "TEXCOORD_0" : 2,
                        "JOINTS_0" : 3,
                        "WEIGHTS_0" : 4
                    },
                    "indices" : 5,
                    "material" : 0
                }
            ]
        }
    ],
    "textures" : [
        {
            "source" : 0
        }
    ],
    "images" : [
        {
            "bufferView" : 6,
            "mimeType" : "image/jpeg",
            "name" : "50_cabbage_albedo"
        }
    ],
    "accessors" : [
        {
            "bufferView" : 0,
            "componentType" : 5126,
            "count" : 1424,
            "max" : [
                0.46719637513160706,
                0.38235458731651306,
                0.460112065076828
            ],
            "min" : [
                -0.48709169030189514,
                -0.578532338142395,
                -0.4791887700557709
            ],
            "type" : "VEC3"
        },
        {
            "bufferView" : 1,
            "componentType" : 5126,
            "count" : 1424,
            "type" : "VEC3"
        },
        {
            "bufferView" : 2,
            "componentType" : 5126,
            "count" : 1424,
            "type" : "VEC2"
        },
        {
            "bufferView" : 3,
            "componentType" : 5123,
            "count" : 1424,
            "type" : "VEC4"
        },
        {
            "bufferView" : 4,
            "componentType" : 5126,
            "count" : 1424,
            "type" : "VEC4"
        },
        {
            "bufferView" : 5,
            "componentType" : 5123,
            "count" : 2976,
            "type" : "SCALAR"
        }
    ],
    "bufferViews" : [
        {
            "buffer" : 0,
            "byteLength" : 17088,
            "byteOffset" : 0
        },
        {
            "buffer" : 0,
            "byteLength" : 17088,
            "byteOffset" : 17088
        },
        {
            "buffer" : 0,
            "byteLength" : 11392,
            "byteOffset" : 34176
        },
        {
            "buffer" : 0,
            "byteLength" : 11392,
            "byteOffset" : 45568
        },
        {
            "buffer" : 0,
            "byteLength" : 22784,
            "byteOffset" : 56960
        },
        {
            "buffer" : 0,
            "byteLength" : 5952,
            "byteOffset" : 79744
        },
        {
            "buffer" : 0,
            "byteLength" : 375876,
            "byteOffset" : 85696
        }
    ],
    "buffers" : [
        {
            "byteLength" : 461572,
            "uri" : "data:application/octet-stream;base64,"
        }
    ]
}
