{
    "asset" : {
        "generator" : "Khronos glTF Blender I/O v1.1.46",
        "version" : "2.0"
    },
    "scene" : 0,
    "scenes" : [
        {
            "name" : "Scene",
            "nodes" : [
                0
            ]
        }
    ],
    "nodes" : [
        {
            "mesh" : 0,
            "name" : "48_parsnip"
        }
    ],
    "materials" : [
        {
            "doubleSided" : true,
            "emissiveFactor" : [
                0,
                0,
                0
            ],
            "name" : "48_parsnip",
            "pbrMetallicRoughness" : {
                "baseColorTexture" : {
                    "index" : 0,
                    "texCoord" : 0
                },
                "metallicFactor" : 0,
                "roughnessFactor" : 0.5
            }
        }
    ],
    "meshes" : [
        {
            "name" : "tmp.o.057",
            "primitives" : [
                {
                    "attributes" : {
                        "POSITION" : 0,
                        "NORMAL" : 1,
                        "TEXCOORD_0" : 2,
                        "JOINTS_0" : 3,
                        "WEIGHTS_0" : 4
                    },
                    "indices" : 5,
                    "material" : 0
                }
            ]
        }
    ],
    "textures" : [
        {
            "source" : 0
        }
    ],
    "images" : [
        {
            "bufferView" : 6,
            "mimeType" : "image/jpeg",
            "name" : "48_parsnip_albedo"
        }
    ],
    "accessors" : [
        {
            "bufferView" : 0,
            "componentType" : 5126,
            "count" : 1041,
            "max" : [
                0.5526793599128723,
                0.21640026569366455,
                0.21620188653469086
            ],
            "min" : [
                -1.0063214302062988,
                -0.19469358026981354,
                -0.23576758801937103
            ],
            "type" : "VEC3"
        },
        {
            "bufferView" : 1,
            "componentType" : 5126,
            "count" : 1041,
            "type" : "VEC3"
        },
        {
            "bufferView" : 2,
            "componentType" : 5126,
            "count" : 1041,
            "type" : "VEC2"
        },
        {
            "bufferView" : 3,
            "componentType" : 5123,
            "count" : 1041,
            "type" : "VEC4"
        },
        {
            "bufferView" : 4,
            "componentType" : 5126,
            "count" : 1041,
            "type" : "VEC4"
        },
        {
            "bufferView" : 5,
            "componentType" : 5123,
            "count" : 3000,
            "type" : "SCALAR"
        }
    ],
    "bufferViews" : [
        {
            "buffer" : 0,
            "byteLength" : 12492,
            "byteOffset" : 0
        },
        {
            "buffer" : 0,
            "byteLength" : 12492,
            "byteOffset" : 12492
        },
        {
            "buffer" : 0,
            "byteLength" : 8328,
            "byteOffset" : 24984
        },
        {
            "buffer" : 0,
            "byteLength" : 8328,
            "byteOffset" : 33312
        },
        {
            "buffer" : 0,
            "byteLength" : 16656,
            "byteOffset" : 41640
        },
        {
            "buffer" : 0,
            "byteLength" : 6000,
            "byteOffset" : 58296
        },
        {
            "buffer" : 0,
            "byteLength" : 282400,
            "byteOffset" : 64296
        }
    ],
    "buffers" : [
        {
            "byteLength" : 346696,
            "uri" : "data:application/octet-stream;base64,"
        }
    ]
}
