{
    "asset" : {
        "generator" : "Khronos glTF Blender I/O v1.1.46",
        "version" : "2.0"
    },
    "scene" : 0,
    "scenes" : [
        {
            "name" : "Scene",
            "nodes" : [
                0
            ]
        }
    ],
    "nodes" : [
        {
            "mesh" : 0,
            "name" : "apple03_lr"
        }
    ],
    "materials" : [
        {
            "doubleSided" : true,
            "emissiveFactor" : [
                0,
                0,
                0
            ],
            "name" : "apple03_lr",
            "normalTexture" : {
                "index" : 0,
                "texCoord" : 0
            },
            "pbrMetallicRoughness" : {
                "baseColorFactor" : [
                    0.5,
                    0.5,
                    0.5,
                    1
                ],
                "baseColorTexture" : {
                    "index" : 1,
                    "texCoord" : 0
                },
                "metallicFactor" : 0,
                "roughnessFactor" : 0.5
            }
        }
    ],
    "meshes" : [
        {
            "name" : "tmp.o.104",
            "primitives" : [
                {
                    "attributes" : {
                        "POSITION" : 0,
                        "NORMAL" : 1,
                        "TEXCOORD_0" : 2,
                        "JOINTS_0" : 3,
                        "WEIGHTS_0" : 4
                    },
                    "indices" : 5,
                    "material" : 0
                }
            ]
        }
    ],
    "textures" : [
        {
            "source" : 0
        },
        {
            "source" : 1
        }
    ],
    "images" : [
        {
            "bufferView" : 6,
            "mimeType" : "image/jpeg",
            "name" : "apple03_lr_normals"
        },
        {
            "bufferView" : 7,
            "mimeType" : "image/jpeg",
            "name" : "apple03_lr_albedo"
        }
    ],
    "accessors" : [
        {
            "bufferView" : 0,
            "componentType" : 5126,
            "count" : 842,
            "max" : [
                0.48983824253082275,
                0.5209295153617859,
                0.5159006118774414
            ],
            "min" : [
                -0.5052829384803772,
                -0.46353018283843994,
                -0.4775039255619049
            ],
            "type" : "VEC3"
        },
        {
            "bufferView" : 1,
            "componentType" : 5126,
            "count" : 842,
            "type" : "VEC3"
        },
        {
            "bufferView" : 2,
            "componentType" : 5126,
            "count" : 842,
            "type" : "VEC2"
        },
        {
            "bufferView" : 3,
            "componentType" : 5123,
            "count" : 842,
            "type" : "VEC4"
        },
        {
            "bufferView" : 4,
            "componentType" : 5126,
            "count" : 842,
            "type" : "VEC4"
        },
        {
            "bufferView" : 5,
            "componentType" : 5123,
            "count" : 3000,
            "type" : "SCALAR"
        }
    ],
    "bufferViews" : [
        {
            "buffer" : 0,
            "byteLength" : 10104,
            "byteOffset" : 0
        },
        {
            "buffer" : 0,
            "byteLength" : 10104,
            "byteOffset" : 10104
        },
        {
            "buffer" : 0,
            "byteLength" : 6736,
            "byteOffset" : 20208
        },
        {
            "buffer" : 0,
            "byteLength" : 6736,
            "byteOffset" : 26944
        },
        {
            "buffer" : 0,
            "byteLength" : 13472,
            "byteOffset" : 33680
        },
        {
            "buffer" : 0,
            "byteLength" : 6000,
            "byteOffset" : 47152
        },
        {
            "buffer" : 0,
            "byteLength" : 128189,
            "byteOffset" : 53152
        },
        {
            "buffer" : 0,
            "byteLength" : 176726,
            "byteOffset" : 181344
        }
    ],
    "buffers" : [
        {
            "byteLength" : 358072,
            "uri" : "data:application/octet-stream;base64,"
        }
    ]
}
