{
    "asset" : {
        "generator" : "Khronos glTF Blender I/O v1.1.46",
        "version" : "2.0"
    },
    "scene" : 0,
    "scenes" : [
        {
            "name" : "Scene",
            "nodes" : [
                0
            ]
        }
    ],
    "nodes" : [
        {
            "mesh" : 0,
            "name" : "22_beetroot"
        }
    ],
    "materials" : [
        {
            "doubleSided" : true,
            "emissiveFactor" : [
                0,
                0,
                0
            ],
            "name" : "22_beetroot",
            "pbrMetallicRoughness" : {
                "baseColorTexture" : {
                    "index" : 0,
                    "texCoord" : 0
                },
                "metallicFactor" : 0,
                "roughnessFactor" : 0.5
            }
        }
    ],
    "meshes" : [
        {
            "name" : "tmp.o.048",
            "primitives" : [
                {
                    "attributes" : {
                        "POSITION" : 0,
                        "NORMAL" : 1,
                        "TEXCOORD_0" : 2,
                        "JOINTS_0" : 3,
                        "WEIGHTS_0" : 4
                    },
                    "indices" : 5,
                    "material" : 0
                }
            ]
        }
    ],
    "textures" : [
        {
            "source" : 0
        }
    ],
    "images" : [
        {
            "bufferView" : 6,
            "mimeType" : "image/jpeg",
            "name" : "22_beetroot_albedo"
        }
    ],
    "accessors" : [
        {
            "bufferView" : 0,
            "componentType" : 5126,
            "count" : 915,
            "max" : [
                0.44092318415641785,
                0.45695629715919495,
                0.5051045417785645
            ],
            "min" : [
                -0.558748185634613,
                -0.4019962549209595,
                -0.4002540111541748
            ],
            "type" : "VEC3"
        },
        {
            "bufferView" : 1,
            "componentType" : 5126,
            "count" : 915,
            "type" : "VEC3"
        },
        {
            "bufferView" : 2,
            "componentType" : 5126,
            "count" : 915,
            "type" : "VEC2"
        },
        {
            "bufferView" : 3,
            "componentType" : 5123,
            "count" : 915,
            "type" : "VEC4"
        },
        {
            "bufferView" : 4,
            "componentType" : 5126,
            "count" : 915,
            "type" : "VEC4"
        },
        {
            "bufferView" : 5,
            "componentType" : 5123,
            "count" : 2994,
            "type" : "SCALAR"
        }
    ],
    "bufferViews" : [
        {
            "buffer" : 0,
            "byteLength" : 10980,
            "byteOffset" : 0
        },
        {
            "buffer" : 0,
            "byteLength" : 10980,
            "byteOffset" : 10980
        },
        {
            "buffer" : 0,
            "byteLength" : 7320,
            "byteOffset" : 21960
        },
        {
            "buffer" : 0,
            "byteLength" : 7320,
            "byteOffset" : 29280
        },
        {
            "buffer" : 0,
            "byteLength" : 14640,
            "byteOffset" : 36600
        },
        {
            "buffer" : 0,
            "byteLength" : 5988,
            "byteOffset" : 51240
        },
        {
            "buffer" : 0,
            "byteLength" : 246912,
            "byteOffset" : 57228
        }
    ],
    "buffers" : [
        {
            "byteLength" : 304140,
            "uri" : "data:application/octet-stream;base64,"
        }
    ]
}
