{
    "asset" : {
        "generator" : "Khronos glTF Blender I/O v1.1.46",
        "version" : "2.0"
    },
    "scene" : 0,
    "scenes" : [
        {
            "name" : "Scene",
            "nodes" : [
                0
            ]
        }
    ],
    "nodes" : [
        {
            "mesh" : 0,
            "name" : "43_kiwi"
        }
    ],
    "materials" : [
        {
            "doubleSided" : true,
            "emissiveFactor" : [
                0,
                0,
                0
            ],
            "name" : "43_kiwi",
            "pbrMetallicRoughness" : {
                "baseColorTexture" : {
                    "index" : 0,
                    "texCoord" : 0
                },
                "metallicFactor" : 0,
                "roughnessFactor" : 0.5
            }
        }
    ],
    "meshes" : [
        {
            "name" : "tmp.o.050",
            "primitives" : [
                {
                    "attributes" : {
                        "POSITION" : 0,
                        "NORMAL" : 1,
                        "TEXCOORD_0" : 2,
                        "JOINTS_0" : 3,
                        "WEIGHTS_0" : 4
                    },
                    "indices" : 5,
                    "material" : 0
                }
            ]
        }
    ],
    "textures" : [
        {
            "source" : 0
        }
    ],
    "images" : [
        {
            "bufferView" : 6,
            "mimeType" : "image/jpeg",
            "name" : "43_kiwi_albedo"
        }
    ],
    "accessors" : [
        {
            "bufferView" : 0,
            "componentType" : 5126,
            "count" : 645,
            "max" : [
                0.5169945955276489,
                0.37784749269485474,
                0.5027471780776978
            ],
            "min" : [
                -0.47381898760795593,
                -0.38786670565605164,
                -0.42697563767433167
            ],
            "type" : "VEC3"
        },
        {
            "bufferView" : 1,
            "componentType" : 5126,
            "count" : 645,
            "type" : "VEC3"
        },
        {
            "bufferView" : 2,
            "componentType" : 5126,
            "count" : 645,
            "type" : "VEC2"
        },
        {
            "bufferView" : 3,
            "componentType" : 5123,
            "count" : 645,
            "type" : "VEC4"
        },
        {
            "bufferView" : 4,
            "componentType" : 5126,
            "count" : 645,
            "type" : "VEC4"
        },
        {
            "bufferView" : 5,
            "componentType" : 5123,
            "count" : 3000,
            "type" : "SCALAR"
        }
    ],
    "bufferViews" : [
        {
            "buffer" : 0,
            "byteLength" : 7740,
            "byteOffset" : 0
        },
        {
            "buffer" : 0,
            "byteLength" : 7740,
            "byteOffset" : 7740
        },
        {
            "buffer" : 0,
            "byteLength" : 5160,
            "byteOffset" : 15480
        },
        {
            "buffer" : 0,
            "byteLength" : 5160,
            "byteOffset" : 20640
        },
        {
            "buffer" : 0,
            "byteLength" : 10320,
            "byteOffset" : 25800
        },
        {
            "buffer" : 0,
            "byteLength" : 6000,
            "byteOffset" : 36120
        },
        {
            "buffer" : 0,
            "byteLength" : 256058,
            "byteOffset" : 42120
        }
    ],
    "buffers" : [
        {
            "byteLength" : 298180,
            "uri" : "data:application/octet-stream;base64,"
        }
    ]
}
