{
    "asset" : {
        "generator" : "Khronos glTF Blender I/O v1.1.46",
        "version" : "2.0"
    },
    "scene" : 0,
    "scenes" : [
        {
            "name" : "Scene",
            "nodes" : [
                0
            ]
        }
    ],
    "nodes" : [
        {
            "mesh" : 0,
            "name" : "33_mandarin"
        }
    ],
    "materials" : [
        {
            "doubleSided" : true,
            "emissiveFactor" : [
                0,
                0,
                0
            ],
            "name" : "33_mandarin",
            "pbrMetallicRoughness" : {
                "baseColorTexture" : {
                    "index" : 0,
                    "texCoord" : 0
                },
                "metallicFactor" : 0,
                "roughnessFactor" : 0.5
            }
        }
    ],
    "meshes" : [
        {
            "name" : "tmp.o.052",
            "primitives" : [
                {
                    "attributes" : {
                        "POSITION" : 0,
                        "NORMAL" : 1,
                        "TEXCOORD_0" : 2,
                        "JOINTS_0" : 3,
                        "WEIGHTS_0" : 4
                    },
                    "indices" : 5,
                    "material" : 0
                }
            ]
        }
    ],
    "textures" : [
        {
            "source" : 0
        }
    ],
    "images" : [
        {
            "bufferView" : 6,
            "mimeType" : "image/jpeg",
            "name" : "33_mandarin_albedo"
        }
    ],
    "accessors" : [
        {
            "bufferView" : 0,
            "componentType" : 5126,
            "count" : 669,
            "max" : [
                0.4966072738170624,
                0.4458976686000824,
                0.4977228045463562
            ],
            "min" : [
                -0.501740038394928,
                -0.3568566143512726,
                -0.48672908544540405
            ],
            "type" : "VEC3"
        },
        {
            "bufferView" : 1,
            "componentType" : 5126,
            "count" : 669,
            "type" : "VEC3"
        },
        {
            "bufferView" : 2,
            "componentType" : 5126,
            "count" : 669,
            "type" : "VEC2"
        },
        {
            "bufferView" : 3,
            "componentType" : 5123,
            "count" : 669,
            "type" : "VEC4"
        },
        {
            "bufferView" : 4,
            "componentType" : 5126,
            "count" : 669,
            "type" : "VEC4"
        },
        {
            "bufferView" : 5,
            "componentType" : 5123,
            "count" : 3000,
            "type" : "SCALAR"
        }
    ],
    "bufferViews" : [
        {
            "buffer" : 0,
            "byteLength" : 8028,
            "byteOffset" : 0
        },
        {
            "buffer" : 0,
            "byteLength" : 8028,
            "byteOffset" : 8028
        },
        {
            "buffer" : 0,
            "byteLength" : 5352,
            "byteOffset" : 16056
        },
        {
            "buffer" : 0,
            "byteLength" : 5352,
            "byteOffset" : 21408
        },
        {
            "buffer" : 0,
            "byteLength" : 10704,
            "byteOffset" : 26760
        },
        {
            "buffer" : 0,
            "byteLength" : 6000,
            "byteOffset" : 37464
        },
        {
            "buffer" : 0,
            "byteLength" : 151507,
            "byteOffset" : 43464
        }
    ],
    "buffers" : [
        {
            "byteLength" : 194972,
            "uri" : "data:application/octet-stream;base64,"
        }
    ]
}
