{
  "accessors": [
    {
      "bufferView": 2,
      "componentType": 5126,
      "count": 684,
      "max": [
        6.4379787445068359,
        6.4215497970581055,
        12.559787750244141
      ],
      "min": [
        -6.4687404632568359,
        -6.4617447853088379,
        0.38648739457130432
      ],
      "type": "VEC3"
    },
    {
      "bufferView": 2,
      "byteOffset": 8208,
      "componentType": 5126,
      "count": 684,
      "max": [
        0.99129873514175415,
        0.99632084369659424,
        0.99999183416366577
      ],
      "min": [
        -0.99780303239822388,
        -0.99632084369659424,
        -0.99999356269836426
      ],
      "type": "VEC3"
    },
    {
      "bufferView": 3,
      "componentType": 5126,
      "count": 684,
      "max": [
        0.99587017297744751,
        0.99901169538497925,
        0.99871212244033813,
        1
      ],
      "min": [
        -0.99755197763442993,
        -0.99996286630630493,
        -0.89277642965316772,
        1
      ],
      "type": "VEC4"
    },
    {
      "bufferView": 1,
      "componentType": 5126,
      "count": 684,
      "max": [
        0.99989497661590576,
        0.99066132307052612
      ],
      "min": [
        0.0001050404243869707,
        0.0001050404243869707
      ],
      "type": "VEC2"
    },
    {
      "bufferView": 0,
      "componentType": 5125,
      "count": 3276,
      "max": [
        683
      ],
      "min": [
        0
      ],
      "type": "SCALAR"
    }
  ],
  "asset": {
    "extras": {
      "author": "avelina.99 (https://sketchfab.com/avelina.99)",
      "license": "CC-BY-4.0 (http://creativecommons.org/licenses/by/4.0/)",
      "source": "https://sketchfab.com/3d-models/tomato-f192a9f04477437fa82f15d382b93ef7",
      "title": "Tomato"
    },
    "generator": "Sketchfab-8.20.0",
    "version": "2.0"
  },
  "bufferViews": [
    {
      "buffer": 0,
      "byteLength": 13104,
      "byteOffset": 0,
      "name": "floatBufferViews",
      "target": 34963
    },
    {
      "buffer": 0,
      "byteLength": 5472,
      "byteOffset": 13104,
      "byteStride": 8,
      "name": "floatBufferViews",
      "target": 34962
    },
    {
      "buffer": 0,
      "byteLength": 16416,
      "byteOffset": 18576,
      "byteStride": 12,
      "name": "floatBufferViews",
      "target": 34962
    },
    {
      "buffer": 0,
      "byteLength": 10944,
      "byteOffset": 34992,
      "byteStride": 16,
      "name": "floatBufferViews",
      "target": 34962
    }
  ],
  "buffers": [
    {
      "byteLength": 45936,
      "uri": "scene.bin"
    }
  ],
  "images": [
    {
      "uri": "textures/trn_Tomato.001_baseColor.png"
    },
    {
      "uri": "textures/trn_Tomato.001_metallicRoughness.png"
    },
    {
      "uri": "textures/trn_Tomato.001_normal.png"
    }
  ],
  "materials": [
    {
      "doubleSided": true,
      "emissiveFactor": [
        0,
        0,
        0
      ],
      "name": "trn_Tomato.001",
      "normalTexture": {
        "index": 2,
        "scale": 1,
        "texCoord": 0
      },
      "pbrMetallicRoughness": {
        "baseColorFactor": [
          1,
          1,
          1,
          1
        ],
        "baseColorTexture": {
          "index": 0,
          "texCoord": 0
        },
        "metallicFactor": 1,
        "metallicRoughnessTexture": {
          "index": 1,
          "texCoord": 0
        },
        "roughnessFactor": 0.82394172574614266
      }
    }
  ],
  "meshes": [
    {
      "name": "T_trn_Tomato_trn_Tomato.001_0",
      "primitives": [
        {
          "attributes": {
            "NORMAL": 1,
            "POSITION": 0,
            "TANGENT": 2,
            "TEXCOORD_0": 3
          },
          "indices": 4,
          "material": 0,
          "mode": 4
        }
      ]
    }
  ],
  "nodes": [
    {
      "children": [
        1
      ],
      "name": "RootNode (gltf orientation matrix)",
      "rotation": [
        -0.70710678118654746,
        -0,
        -0,
        0.70710678118654757
      ]
    },
    {
      "children": [
        2
      ],
      "name": "RootNode (model correction matrix)"
    },
    {
      "children": [
        3
      ],
      "matrix": [
        1,
        0,
        0,
        0,
        0,
        0,
        1,
        0,
        0,
        -1,
        0,
        0,
        0,
        0,
        0,
        1
      ],
      "name": "trn_Tomato.fbx"
    },
    {
      "children": [
        4
      ],
      "name": "RootNode"
    },
    {
      "children": [
        5
      ],
      "matrix": [
        1,
        0,
        0,
        0,
        0,
        -1.6292067939183141e-07,
        -0.99999999999998679,
        0,
        0,
        0.99999999999998679,
        -1.6292067939183141e-07,
        0,
        0,
        0,
        0,
        1
      ],
      "name": "T_trn_Tomato"
    },
    {
      "mesh": 0,
      "name": "T_trn_Tomato_trn_Tomato.001_0"
    }
  ],
  "samplers": [
    {
      "magFilter": 9729,
      "minFilter": 9987,
      "wrapS": 10497,
      "wrapT": 10497
    }
  ],
  "scene": 0,
  "scenes": [
    {
      "name": "OSG_Scene",
      "nodes": [
        0
      ]
    }
  ],
  "textures": [
    {
      "sampler": 0,
      "source": 0
    },
    {
      "sampler": 0,
      "source": 1
    },
    {
      "sampler": 0,
      "source": 2
    }
  ]
}

