{
    "asset" : {
        "generator" : "Khronos glTF Blender I/O v1.1.46",
        "version" : "2.0"
    },
    "scene" : 0,
    "scenes" : [
        {
            "name" : "Scene",
            "nodes" : [
                0
            ]
        }
    ],
    "nodes" : [
        {
            "mesh" : 0,
            "name" : "63_pineapple"
        }
    ],
    "materials" : [
        {
            "doubleSided" : true,
            "emissiveFactor" : [
                0,
                0,
                0
            ],
            "name" : "63_pineapple",
            "pbrMetallicRoughness" : {
                "baseColorTexture" : {
                    "index" : 0,
                    "texCoord" : 0
                },
                "metallicFactor" : 0,
                "roughnessFactor" : 0.5
            }
        }
    ],
    "meshes" : [
        {
            "name" : "tmp.o.006",
            "primitives" : [
                {
                    "attributes" : {
                        "POSITION" : 0,
                        "NORMAL" : 1,
                        "TEXCOORD_0" : 2,
                        "JOINTS_0" : 3,
                        "WEIGHTS_0" : 4
                    },
                    "indices" : 5,
                    "material" : 0
                }
            ]
        }
    ],
    "textures" : [
        {
            "source" : 0
        }
    ],
    "images" : [
        {
            "bufferView" : 6,
            "mimeType" : "image/jpeg",
            "name" : "63_pineapple_albedo"
        }
    ],
    "accessors" : [
        {
            "bufferView" : 0,
            "componentType" : 5126,
            "count" : 1360,
            "max" : [
                0.4217163920402527,
                1.422741413116455,
                0.3735479414463043
            ],
            "min" : [
                -0.39009854197502136,
                -0.5307022333145142,
                -0.4139816462993622
            ],
            "type" : "VEC3"
        },
        {
            "bufferView" : 1,
            "componentType" : 5126,
            "count" : 1360,
            "type" : "VEC3"
        },
        {
            "bufferView" : 2,
            "componentType" : 5126,
            "count" : 1360,
            "type" : "VEC2"
        },
        {
            "bufferView" : 3,
            "componentType" : 5123,
            "count" : 1360,
            "type" : "VEC4"
        },
        {
            "bufferView" : 4,
            "componentType" : 5126,
            "count" : 1360,
            "type" : "VEC4"
        },
        {
            "bufferView" : 5,
            "componentType" : 5123,
            "count" : 3000,
            "type" : "SCALAR"
        }
    ],
    "bufferViews" : [
        {
            "buffer" : 0,
            "byteLength" : 16320,
            "byteOffset" : 0
        },
        {
            "buffer" : 0,
            "byteLength" : 16320,
            "byteOffset" : 16320
        },
        {
            "buffer" : 0,
            "byteLength" : 10880,
            "byteOffset" : 32640
        },
        {
            "buffer" : 0,
            "byteLength" : 10880,
            "byteOffset" : 43520
        },
        {
            "buffer" : 0,
            "byteLength" : 21760,
            "byteOffset" : 54400
        },
        {
            "buffer" : 0,
            "byteLength" : 6000,
            "byteOffset" : 76160
        },
        {
            "buffer" : 0,
            "byteLength" : 428612,
            "byteOffset" : 82160
        }
    ],
    "buffers" : [
        {
            "byteLength" : 510772,
            "uri" : "data:application/octet-stream;base64,"
        }
    ]
}
