{
  "accessors": [
    {
      "bufferView": 2,
      "componentType": 5126,
      "count": 1565,
      "max": [
        0.68214136362075806,
        0.69562721252441406,
        0.40664619207382202
      ],
      "min": [
        -0.68813091516494751,
        -0.69584774971008301,
        -0.43342220783233643
      ],
      "type": "VEC3"
    },
    {
      "bufferView": 2,
      "byteOffset": 18780,
      "componentType": 5126,
      "count": 1565,
      "max": [
        0.99997854232788086,
        0.99769890308380127,
        0.99746465682983398
      ],
      "min": [
        -0.99994122982025146,
        -0.99654901027679443,
        -0.99893289804458618
      ],
      "type": "VEC3"
    },
    {
      "bufferView": 3,
      "componentType": 5126,
      "count": 1565,
      "max": [
        0.99960798025131226,
        0.99998754262924194,
        0.99995529651641846,
        1
      ],
      "min": [
        -0.99983537197113037,
        -0.99999576807022095,
        -0.99984461069107056,
        1
      ],
      "type": "VEC4"
    },
    {
      "bufferView": 1,
      "componentType": 5126,
      "count": 1565,
      "max": [
        0.99088507890701294,
        0.94073945283889771
      ],
      "min": [
        0.0024224002845585346,
        0.0024156328290700912
      ],
      "type": "VEC2"
    },
    {
      "bufferView": 0,
      "componentType": 5125,
      "count": 7434,
      "max": [
        1564
      ],
      "min": [
        0
      ],
      "type": "SCALAR"
    },
    {
      "bufferView": 2,
      "byteOffset": 37560,
      "componentType": 5126,
      "count": 714,
      "max": [
        0.11999805271625519,
        0.59578293561935425,
        0.11366288363933563
      ],
      "min": [
        -0.12715111672878265,
        -0.38327792286872864,
        -0.12566326558589935
      ],
      "type": "VEC3"
    },
    {
      "bufferView": 2,
      "byteOffset": 46128,
      "componentType": 5126,
      "count": 714,
      "max": [
        0.99838787317276001,
        0.9977872371673584,
        0.99820369482040405
      ],
      "min": [
        -0.99892085790634155,
        -0.9997938871383667,
        -0.99501389265060425
      ],
      "type": "VEC3"
    },
    {
      "bufferView": 3,
      "byteOffset": 25040,
      "componentType": 5126,
      "count": 714,
      "max": [
        0.99591171741485596,
        0.99990677833557129,
        0.95096820592880249,
        1
      ],
      "min": [
        -0.99346840381622314,
        -0.99859970808029175,
        -0.96086329221725464,
        1
      ],
      "type": "VEC4"
    },
    {
      "bufferView": 1,
      "byteOffset": 12520,
      "componentType": 5126,
      "count": 714,
      "max": [
        0.99569410085678101,
        0.99757546186447144
      ],
      "min": [
        0.0025236834771931171,
        0.0024121815804392099
      ],
      "type": "VEC2"
    },
    {
      "bufferView": 0,
      "byteOffset": 29736,
      "componentType": 5125,
      "count": 2892,
      "max": [
        713
      ],
      "min": [
        0
      ],
      "type": "SCALAR"
    }
  ],
  "asset": {
    "extras": {
      "author": "Batuhan13 (https://sketchfab.com/Batuhan13)",
      "license": "CC-BY-4.0 (http://creativecommons.org/licenses/by/4.0/)",
      "source": "https://sketchfab.com/3d-models/pumpkin-cc77931e16b740bf9c701ce0f82251ad",
      "title": "Pumpkin"
    },
    "generator": "Sketchfab-7.27.0",
    "version": "2.0"
  },
  "bufferViews": [
    {
      "buffer": 0,
      "byteLength": 41304,
      "byteOffset": 0,
      "name": "floatBufferViews",
      "target": 34963
    },
    {
      "buffer": 0,
      "byteLength": 18232,
      "byteOffset": 41304,
      "byteStride": 8,
      "name": "floatBufferViews",
      "target": 34962
    },
    {
      "buffer": 0,
      "byteLength": 54696,
      "byteOffset": 59536,
      "byteStride": 12,
      "name": "floatBufferViews",
      "target": 34962
    },
    {
      "buffer": 0,
      "byteLength": 36464,
      "byteOffset": 114232,
      "byteStride": 16,
      "name": "floatBufferViews",
      "target": 34962
    }
  ],
  "buffers": [
    {
      "byteLength": 150696,
      "uri": "scene.bin"
    }
  ],
  "images": [
    {
      "uri": "textures/Pumpkin_baseColor.png"
    },
    {
      "uri": "textures/Pumpkin_metallicRoughness.png"
    },
    {
      "uri": "textures/Pumpkin_normal.png"
    }
  ],
  "materials": [
    {
      "doubleSided": true,
      "emissiveFactor": [
        0,
        0,
        0
      ],
      "name": "Pumpkin",
      "normalTexture": {
        "index": 2,
        "scale": 1,
        "texCoord": 0
      },
      "pbrMetallicRoughness": {
        "baseColorFactor": [
          1,
          1,
          1,
          1
        ],
        "baseColorTexture": {
          "index": 0,
          "texCoord": 0
        },
        "metallicFactor": 1,
        "metallicRoughnessTexture": {
          "index": 1,
          "texCoord": 0
        },
        "roughnessFactor": 0.43469696044921879
      }
    }
  ],
  "meshes": [
    {
      "name": "1_low_Pumpkin_0",
      "primitives": [
        {
          "attributes": {
            "NORMAL": 1,
            "POSITION": 0,
            "TANGENT": 2,
            "TEXCOORD_0": 3
          },
          "indices": 4,
          "material": 0,
          "mode": 4
        }
      ]
    },
    {
      "name": "2_low_Pumpkin_0",
      "primitives": [
        {
          "attributes": {
            "NORMAL": 6,
            "POSITION": 5,
            "TANGENT": 7,
            "TEXCOORD_0": 8
          },
          "indices": 9,
          "material": 0,
          "mode": 4
        }
      ]
    }
  ],
  "nodes": [
    {
      "children": [
        1
      ],
      "name": "RootNode (gltf orientation matrix)",
      "rotation": [
        -0.70710678118654746,
        -0,
        -0,
        0.70710678118654757
      ]
    },
    {
      "children": [
        2
      ],
      "name": "RootNode (model correction matrix)"
    },
    {
      "children": [
        3
      ],
      "matrix": [
        1,
        0,
        0,
        0,
        0,
        0,
        1,
        0,
        0,
        -1,
        0,
        0,
        0,
        0,
        0,
        1
      ],
      "name": "pumpkinL.fbx"
    },
    {
      "children": [
        4,
        6
      ],
      "name": "RootNode"
    },
    {
      "children": [
        5
      ],
      "matrix": [
        100,
        0,
        0,
        0,
        0,
        -1.6292067939183141e-05,
        -99.999999999998678,
        0,
        0,
        99.999999999998678,
        -1.6292067939183141e-05,
        0,
        0,
        0,
        0,
        1
      ],
      "name": "1_low"
    },
    {
      "mesh": 0,
      "name": "1_low_Pumpkin_0"
    },
    {
      "children": [
        7
      ],
      "matrix": [
        100,
        0,
        0,
        0,
        0,
        99.999999999998664,
        1.6292067073209114e-05,
        0,
        0,
        -1.6292067073209114e-05,
        99.999999999998664,
        0,
        0,
        0,
        0,
        1
      ],
      "name": "2_low"
    },
    {
      "mesh": 1,
      "name": "2_low_Pumpkin_0"
    }
  ],
  "samplers": [
    {
      "magFilter": 9729,
      "minFilter": 9987,
      "wrapS": 10497,
      "wrapT": 10497
    }
  ],
  "scene": 0,
  "scenes": [
    {
      "name": "OSG_Scene",
      "nodes": [
        0
      ]
    }
  ],
  "textures": [
    {
      "sampler": 0,
      "source": 0
    },
    {
      "sampler": 0,
      "source": 1
    },
    {
      "sampler": 0,
      "source": 2
    }
  ]
}

