{
    "asset" : {
        "generator" : "Khronos glTF Blender I/O v1.1.46",
        "version" : "2.0"
    },
    "scene" : 0,
    "scenes" : [
        {
            "name" : "Scene",
            "nodes" : [
                0
            ]
        }
    ],
    "nodes" : [
        {
            "mesh" : 0,
            "name" : "20_orange"
        }
    ],
    "materials" : [
        {
            "doubleSided" : true,
            "emissiveFactor" : [
                0,
                0,
                0
            ],
            "name" : "20_orange",
            "pbrMetallicRoughness" : {
                "baseColorTexture" : {
                    "index" : 0,
                    "texCoord" : 0
                },
                "metallicFactor" : 0,
                "roughnessFactor" : 0.5
            }
        }
    ],
    "meshes" : [
        {
            "name" : "tmp.o.002",
            "primitives" : [
                {
                    "attributes" : {
                        "POSITION" : 0,
                        "NORMAL" : 1,
                        "TEXCOORD_0" : 2,
                        "JOINTS_0" : 3,
                        "WEIGHTS_0" : 4
                    },
                    "indices" : 5,
                    "material" : 0
                }
            ]
        }
    ],
    "textures" : [
        {
            "source" : 0
        }
    ],
    "images" : [
        {
            "bufferView" : 6,
            "mimeType" : "image/jpeg",
            "name" : "20_orange_albedo"
        }
    ],
    "accessors" : [
        {
            "bufferView" : 0,
            "componentType" : 5126,
            "count" : 615,
            "max" : [
                0.4617295265197754,
                0.3824760317802429,
                0.47817933559417725
            ],
            "min" : [
                -0.5378913879394531,
                -0.5017671585083008,
                -0.5091263055801392
            ],
            "type" : "VEC3"
        },
        {
            "bufferView" : 1,
            "componentType" : 5126,
            "count" : 615,
            "type" : "VEC3"
        },
        {
            "bufferView" : 2,
            "componentType" : 5126,
            "count" : 615,
            "type" : "VEC2"
        },
        {
            "bufferView" : 3,
            "componentType" : 5123,
            "count" : 615,
            "type" : "VEC4"
        },
        {
            "bufferView" : 4,
            "componentType" : 5126,
            "count" : 615,
            "type" : "VEC4"
        },
        {
            "bufferView" : 5,
            "componentType" : 5123,
            "count" : 3000,
            "type" : "SCALAR"
        }
    ],
    "bufferViews" : [
        {
            "buffer" : 0,
            "byteLength" : 7380,
            "byteOffset" : 0
        },
        {
            "buffer" : 0,
            "byteLength" : 7380,
            "byteOffset" : 7380
        },
        {
            "buffer" : 0,
            "byteLength" : 4920,
            "byteOffset" : 14760
        },
        {
            "buffer" : 0,
            "byteLength" : 4920,
            "byteOffset" : 19680
        },
        {
            "buffer" : 0,
            "byteLength" : 9840,
            "byteOffset" : 24600
        },
        {
            "buffer" : 0,
            "byteLength" : 6000,
            "byteOffset" : 34440
        },
        {
            "buffer" : 0,
            "byteLength" : 191776,
            "byteOffset" : 40440
        }
    ],
    "buffers" : [
        {
            "byteLength" : 232216,
            "uri" : "data:application/octet-stream;base64,"
        }
    ]
}
