{
    "asset" : {
        "generator" : "Khronos glTF Blender I/O v1.1.46",
        "version" : "2.0"
    },
    "scene" : 0,
    "scenes" : [
        {
            "name" : "Scene",
            "nodes" : [
                0
            ]
        }
    ],
    "nodes" : [
        {
            "mesh" : 0,
            "name" : "47_kiwano"
        }
    ],
    "materials" : [
        {
            "doubleSided" : true,
            "emissiveFactor" : [
                0,
                0,
                0
            ],
            "name" : "47_kiwano",
            "pbrMetallicRoughness" : {
                "baseColorTexture" : {
                    "index" : 0,
                    "texCoord" : 0
                },
                "metallicFactor" : 0,
                "roughnessFactor" : 0.5
            }
        }
    ],
    "meshes" : [
        {
            "name" : "tmp.o.043",
            "primitives" : [
                {
                    "attributes" : {
                        "POSITION" : 0,
                        "NORMAL" : 1,
                        "TEXCOORD_0" : 2,
                        "JOINTS_0" : 3,
                        "WEIGHTS_0" : 4
                    },
                    "indices" : 5,
                    "material" : 0
                }
            ]
        }
    ],
    "textures" : [
        {
            "source" : 0
        }
    ],
    "images" : [
        {
            "bufferView" : 6,
            "mimeType" : "image/jpeg",
            "name" : "47_kiwano_albedo"
        }
    ],
    "accessors" : [
        {
            "bufferView" : 0,
            "componentType" : 5126,
            "count" : 1237,
            "max" : [
                0.49423134326934814,
                0.35999906063079834,
                0.36229661107063293
            ],
            "min" : [
                -0.5023568868637085,
                -0.344765841960907,
                -0.33317098021507263
            ],
            "type" : "VEC3"
        },
        {
            "bufferView" : 1,
            "componentType" : 5126,
            "count" : 1237,
            "type" : "VEC3"
        },
        {
            "bufferView" : 2,
            "componentType" : 5126,
            "count" : 1237,
            "type" : "VEC2"
        },
        {
            "bufferView" : 3,
            "componentType" : 5123,
            "count" : 1237,
            "type" : "VEC4"
        },
        {
            "bufferView" : 4,
            "componentType" : 5126,
            "count" : 1237,
            "type" : "VEC4"
        },
        {
            "bufferView" : 5,
            "componentType" : 5123,
            "count" : 3000,
            "type" : "SCALAR"
        }
    ],
    "bufferViews" : [
        {
            "buffer" : 0,
            "byteLength" : 14844,
            "byteOffset" : 0
        },
        {
            "buffer" : 0,
            "byteLength" : 14844,
            "byteOffset" : 14844
        },
        {
            "buffer" : 0,
            "byteLength" : 9896,
            "byteOffset" : 29688
        },
        {
            "buffer" : 0,
            "byteLength" : 9896,
            "byteOffset" : 39584
        },
        {
            "buffer" : 0,
            "byteLength" : 19792,
            "byteOffset" : 49480
        },
        {
            "buffer" : 0,
            "byteLength" : 6000,
            "byteOffset" : 69272
        },
        {
            "buffer" : 0,
            "byteLength" : 285875,
            "byteOffset" : 75272
        }
    ],
    "buffers" : [
        {
            "byteLength" : 361148,
            "uri" : "data:application/octet-stream;base64,"
        }
    ]
}
