{
    "asset" : {
        "generator" : "Khronos glTF Blender I/O v1.1.46",
        "version" : "2.0"
    },
    "scene" : 0,
    "scenes" : [
        {
            "name" : "Scene",
            "nodes" : [
                0
            ]
        }
    ],
    "nodes" : [
        {
            "mesh" : 0,
            "name" : "76_fig"
        }
    ],
    "materials" : [
        {
            "doubleSided" : true,
            "emissiveFactor" : [
                0,
                0,
                0
            ],
            "name" : "76_fig",
            "pbrMetallicRoughness" : {
                "baseColorTexture" : {
                    "index" : 0,
                    "texCoord" : 0
                },
                "metallicFactor" : 0,
                "roughnessFactor" : 0.5
            }
        }
    ],
    "meshes" : [
        {
            "name" : "tmp.o.014",
            "primitives" : [
                {
                    "attributes" : {
                        "POSITION" : 0,
                        "NORMAL" : 1,
                        "TEXCOORD_0" : 2,
                        "JOINTS_0" : 3,
                        "WEIGHTS_0" : 4
                    },
                    "indices" : 5,
                    "material" : 0
                }
            ]
        }
    ],
    "textures" : [
        {
            "source" : 0
        }
    ],
    "images" : [
        {
            "bufferView" : 6,
            "mimeType" : "image/jpeg",
            "name" : "76_fig_albedo"
        }
    ],
    "accessors" : [
        {
            "bufferView" : 0,
            "componentType" : 5126,
            "count" : 717,
            "max" : [
                0.4222745895385742,
                0.6126965880393982,
                0.3935508728027344
            ],
            "min" : [
                -0.4446772336959839,
                -0.3849407136440277,
                -0.4103051424026489
            ],
            "type" : "VEC3"
        },
        {
            "bufferView" : 1,
            "componentType" : 5126,
            "count" : 717,
            "type" : "VEC3"
        },
        {
            "bufferView" : 2,
            "componentType" : 5126,
            "count" : 717,
            "type" : "VEC2"
        },
        {
            "bufferView" : 3,
            "componentType" : 5123,
            "count" : 717,
            "type" : "VEC4"
        },
        {
            "bufferView" : 4,
            "componentType" : 5126,
            "count" : 717,
            "type" : "VEC4"
        },
        {
            "bufferView" : 5,
            "componentType" : 5123,
            "count" : 3000,
            "type" : "SCALAR"
        }
    ],
    "bufferViews" : [
        {
            "buffer" : 0,
            "byteLength" : 8604,
            "byteOffset" : 0
        },
        {
            "buffer" : 0,
            "byteLength" : 8604,
            "byteOffset" : 8604
        },
        {
            "buffer" : 0,
            "byteLength" : 5736,
            "byteOffset" : 17208
        },
        {
            "buffer" : 0,
            "byteLength" : 5736,
            "byteOffset" : 22944
        },
        {
            "buffer" : 0,
            "byteLength" : 11472,
            "byteOffset" : 28680
        },
        {
            "buffer" : 0,
            "byteLength" : 6000,
            "byteOffset" : 40152
        },
        {
            "buffer" : 0,
            "byteLength" : 264462,
            "byteOffset" : 46152
        }
    ],
    "buffers" : [
        {
            "byteLength" : 310616,
            "uri" : "data:application/octet-stream;base64,"
        }
    ]
}
