{
    "asset" : {
        "generator" : "Khronos glTF Blender I/O v1.1.46",
        "version" : "2.0"
    },
    "scene" : 0,
    "scenes" : [
        {
            "name" : "Scene",
            "nodes" : [
                0
            ]
        }
    ],
    "nodes" : [
        {
            "mesh" : 0,
            "name" : "25_grapes"
        }
    ],
    "materials" : [
        {
            "doubleSided" : true,
            "emissiveFactor" : [
                0,
                0,
                0
            ],
            "name" : "25_grapes",
            "pbrMetallicRoughness" : {
                "baseColorTexture" : {
                    "index" : 0,
                    "texCoord" : 0
                },
                "metallicFactor" : 0,
                "roughnessFactor" : 0.5
            }
        }
    ],
    "meshes" : [
        {
            "name" : "tmp.o.058",
            "primitives" : [
                {
                    "attributes" : {
                        "POSITION" : 0,
                        "NORMAL" : 1,
                        "TEXCOORD_0" : 2,
                        "JOINTS_0" : 3,
                        "WEIGHTS_0" : 4
                    },
                    "indices" : 5,
                    "material" : 0
                }
            ]
        }
    ],
    "textures" : [
        {
            "source" : 0
        }
    ],
    "images" : [
        {
            "bufferView" : 6,
            "mimeType" : "image/jpeg",
            "name" : "25_grapes_albedo"
        }
    ],
    "accessors" : [
        {
            "bufferView" : 0,
            "componentType" : 5126,
            "count" : 1395,
            "max" : [
                0.38652580976486206,
                0.25388485193252563,
                0.2692438066005707
            ],
            "min" : [
                -0.5609104037284851,
                -0.2369297742843628,
                -0.27679041028022766
            ],
            "type" : "VEC3"
        },
        {
            "bufferView" : 1,
            "componentType" : 5126,
            "count" : 1395,
            "type" : "VEC3"
        },
        {
            "bufferView" : 2,
            "componentType" : 5126,
            "count" : 1395,
            "type" : "VEC2"
        },
        {
            "bufferView" : 3,
            "componentType" : 5123,
            "count" : 1395,
            "type" : "VEC4"
        },
        {
            "bufferView" : 4,
            "componentType" : 5126,
            "count" : 1395,
            "type" : "VEC4"
        },
        {
            "bufferView" : 5,
            "componentType" : 5123,
            "count" : 3000,
            "type" : "SCALAR"
        }
    ],
    "bufferViews" : [
        {
            "buffer" : 0,
            "byteLength" : 16740,
            "byteOffset" : 0
        },
        {
            "buffer" : 0,
            "byteLength" : 16740,
            "byteOffset" : 16740
        },
        {
            "buffer" : 0,
            "byteLength" : 11160,
            "byteOffset" : 33480
        },
        {
            "buffer" : 0,
            "byteLength" : 11160,
            "byteOffset" : 44640
        },
        {
            "buffer" : 0,
            "byteLength" : 22320,
            "byteOffset" : 55800
        },
        {
            "buffer" : 0,
            "byteLength" : 6000,
            "byteOffset" : 78120
        },
        {
            "buffer" : 0,
            "byteLength" : 247205,
            "byteOffset" : 84120
        }
    ],
    "buffers" : [
        {
            "byteLength" : 331328,
            "uri" : "data:application/octet-stream;base64,"
        }
    ]
}
