{
    "asset" : {
        "generator" : "Khronos glTF Blender I/O v1.1.46",
        "version" : "2.0"
    },
    "scene" : 0,
    "scenes" : [
        {
            "name" : "Scene",
            "nodes" : [
                0
            ]
        }
    ],
    "nodes" : [
        {
            "mesh" : 0,
            "name" : "73_strawberry"
        }
    ],
    "materials" : [
        {
            "doubleSided" : true,
            "emissiveFactor" : [
                0,
                0,
                0
            ],
            "name" : "73_strawberry",
            "pbrMetallicRoughness" : {
                "baseColorTexture" : {
                    "index" : 0,
                    "texCoord" : 0
                },
                "metallicFactor" : 0,
                "roughnessFactor" : 0.5
            }
        }
    ],
    "meshes" : [
        {
            "name" : "tmp.o.012",
            "primitives" : [
                {
                    "attributes" : {
                        "POSITION" : 0,
                        "NORMAL" : 1,
                        "TEXCOORD_0" : 2,
                        "JOINTS_0" : 3,
                        "WEIGHTS_0" : 4
                    },
                    "indices" : 5,
                    "material" : 0
                }
            ]
        }
    ],
    "textures" : [
        {
            "source" : 0
        }
    ],
    "images" : [
        {
            "bufferView" : 6,
            "mimeType" : "image/jpeg",
            "name" : "73_strawberry_albedo"
        }
    ],
    "accessors" : [
        {
            "bufferView" : 0,
            "componentType" : 5126,
            "count" : 1017,
            "max" : [
                0.33645913004875183,
                0.3369271755218506,
                0.3480280041694641
            ],
            "min" : [
                -0.4989832639694214,
                -0.3241690695285797,
                -0.3641807436943054
            ],
            "type" : "VEC3"
        },
        {
            "bufferView" : 1,
            "componentType" : 5126,
            "count" : 1017,
            "type" : "VEC3"
        },
        {
            "bufferView" : 2,
            "componentType" : 5126,
            "count" : 1017,
            "type" : "VEC2"
        },
        {
            "bufferView" : 3,
            "componentType" : 5123,
            "count" : 1017,
            "type" : "VEC4"
        },
        {
            "bufferView" : 4,
            "componentType" : 5126,
            "count" : 1017,
            "type" : "VEC4"
        },
        {
            "bufferView" : 5,
            "componentType" : 5123,
            "count" : 2994,
            "type" : "SCALAR"
        }
    ],
    "bufferViews" : [
        {
            "buffer" : 0,
            "byteLength" : 12204,
            "byteOffset" : 0
        },
        {
            "buffer" : 0,
            "byteLength" : 12204,
            "byteOffset" : 12204
        },
        {
            "buffer" : 0,
            "byteLength" : 8136,
            "byteOffset" : 24408
        },
        {
            "buffer" : 0,
            "byteLength" : 8136,
            "byteOffset" : 32544
        },
        {
            "buffer" : 0,
            "byteLength" : 16272,
            "byteOffset" : 40680
        },
        {
            "buffer" : 0,
            "byteLength" : 5988,
            "byteOffset" : 56952
        },
        {
            "buffer" : 0,
            "byteLength" : 324458,
            "byteOffset" : 62940
        }
    ],
    "buffers" : [
        {
            "byteLength" : 387400,
            "uri" : "data:application/octet-stream;base64,"
        }
    ]
}
