{
    "asset" : {
        "generator" : "Khronos glTF Blender I/O v1.1.46",
        "version" : "2.0"
    },
    "scene" : 0,
    "scenes" : [
        {
            "name" : "Scene",
            "nodes" : [
                0
            ]
        }
    ],
    "nodes" : [
        {
            "mesh" : 0,
            "name" : "03_avocado"
        }
    ],
    "materials" : [
        {
            "doubleSided" : true,
            "emissiveFactor" : [
                0,
                0,
                0
            ],
            "name" : "03_avocado",
            "pbrMetallicRoughness" : {
                "baseColorTexture" : {
                    "index" : 0,
                    "texCoord" : 0
                },
                "metallicFactor" : 0,
                "roughnessFactor" : 0.5
            }
        }
    ],
    "meshes" : [
        {
            "name" : "tmp.o.035",
            "primitives" : [
                {
                    "attributes" : {
                        "POSITION" : 0,
                        "NORMAL" : 1,
                        "TEXCOORD_0" : 2,
                        "JOINTS_0" : 3,
                        "WEIGHTS_0" : 4
                    },
                    "indices" : 5,
                    "material" : 0
                }
            ]
        }
    ],
    "textures" : [
        {
            "source" : 0
        }
    ],
    "images" : [
        {
            "bufferView" : 6,
            "mimeType" : "image/jpeg",
            "name" : "03_avocado_albedo"
        }
    ],
    "accessors" : [
        {
            "bufferView" : 0,
            "componentType" : 5126,
            "count" : 641,
            "max" : [
                0.7514922022819519,
                0.4208090007305145,
                0.39884820580482483
            ],
            "min" : [
                -0.5523860454559326,
                -0.4341154098510742,
                -0.42748403549194336
            ],
            "type" : "VEC3"
        },
        {
            "bufferView" : 1,
            "componentType" : 5126,
            "count" : 641,
            "type" : "VEC3"
        },
        {
            "bufferView" : 2,
            "componentType" : 5126,
            "count" : 641,
            "type" : "VEC2"
        },
        {
            "bufferView" : 3,
            "componentType" : 5123,
            "count" : 641,
            "type" : "VEC4"
        },
        {
            "bufferView" : 4,
            "componentType" : 5126,
            "count" : 641,
            "type" : "VEC4"
        },
        {
            "bufferView" : 5,
            "componentType" : 5123,
            "count" : 2994,
            "type" : "SCALAR"
        }
    ],
    "bufferViews" : [
        {
            "buffer" : 0,
            "byteLength" : 7692,
            "byteOffset" : 0
        },
        {
            "buffer" : 0,
            "byteLength" : 7692,
            "byteOffset" : 7692
        },
        {
            "buffer" : 0,
            "byteLength" : 5128,
            "byteOffset" : 15384
        },
        {
            "buffer" : 0,
            "byteLength" : 5128,
            "byteOffset" : 20512
        },
        {
            "buffer" : 0,
            "byteLength" : 10256,
            "byteOffset" : 25640
        },
        {
            "buffer" : 0,
            "byteLength" : 5988,
            "byteOffset" : 35896
        },
        {
            "buffer" : 0,
            "byteLength" : 212428,
            "byteOffset" : 41884
        }
    ],
    "buffers" : [
        {
            "byteLength" : 254312,
            "uri" : "data:application/octet-stream;base64,"
        }
    ]
}
