{
    "asset" : {
        "generator" : "Khronos glTF Blender I/O v1.1.46",
        "version" : "2.0"
    },
    "scene" : 0,
    "scenes" : [
        {
            "name" : "Scene",
            "nodes" : [
                0
            ]
        }
    ],
    "nodes" : [
        {
            "mesh" : 0,
            "name" : "44_mango"
        }
    ],
    "materials" : [
        {
            "doubleSided" : true,
            "emissiveFactor" : [
                0,
                0,
                0
            ],
            "name" : "44_mango",
            "pbrMetallicRoughness" : {
                "baseColorTexture" : {
                    "index" : 0,
                    "texCoord" : 0
                },
                "metallicFactor" : 0,
                "roughnessFactor" : 0.5
            }
        }
    ],
    "meshes" : [
        {
            "name" : "tmp.o.020",
            "primitives" : [
                {
                    "attributes" : {
                        "POSITION" : 0,
                        "NORMAL" : 1,
                        "TEXCOORD_0" : 2,
                        "JOINTS_0" : 3,
                        "WEIGHTS_0" : 4
                    },
                    "indices" : 5,
                    "material" : 0
                }
            ]
        }
    ],
    "textures" : [
        {
            "source" : 0
        }
    ],
    "images" : [
        {
            "bufferView" : 6,
            "mimeType" : "image/jpeg",
            "name" : "44_mango_albedo"
        }
    ],
    "accessors" : [
        {
            "bufferView" : 0,
            "componentType" : 5126,
            "count" : 690,
            "max" : [
                0.38555771112442017,
                0.32808035612106323,
                0.4063458740711212
            ],
            "min" : [
                -0.6145844459533691,
                -0.3618568778038025,
                -0.39968186616897583
            ],
            "type" : "VEC3"
        },
        {
            "bufferView" : 1,
            "componentType" : 5126,
            "count" : 690,
            "type" : "VEC3"
        },
        {
            "bufferView" : 2,
            "componentType" : 5126,
            "count" : 690,
            "type" : "VEC2"
        },
        {
            "bufferView" : 3,
            "componentType" : 5123,
            "count" : 690,
            "type" : "VEC4"
        },
        {
            "bufferView" : 4,
            "componentType" : 5126,
            "count" : 690,
            "type" : "VEC4"
        },
        {
            "bufferView" : 5,
            "componentType" : 5123,
            "count" : 3000,
            "type" : "SCALAR"
        }
    ],
    "bufferViews" : [
        {
            "buffer" : 0,
            "byteLength" : 8280,
            "byteOffset" : 0
        },
        {
            "buffer" : 0,
            "byteLength" : 8280,
            "byteOffset" : 8280
        },
        {
            "buffer" : 0,
            "byteLength" : 5520,
            "byteOffset" : 16560
        },
        {
            "buffer" : 0,
            "byteLength" : 5520,
            "byteOffset" : 22080
        },
        {
            "buffer" : 0,
            "byteLength" : 11040,
            "byteOffset" : 27600
        },
        {
            "buffer" : 0,
            "byteLength" : 6000,
            "byteOffset" : 38640
        },
        {
            "buffer" : 0,
            "byteLength" : 144057,
            "byteOffset" : 44640
        }
    ],
    "buffers" : [
        {
            "byteLength" : 188700,
            "uri" : "data:application/octet-stream;base64,"
        }
    ]
}
