{
    "asset" : {
        "generator" : "Khronos glTF Blender I/O v1.1.46",
        "version" : "2.0"
    },
    "scene" : 0,
    "scenes" : [
        {
            "name" : "Scene",
            "nodes" : [
                0
            ]
        }
    ],
    "nodes" : [
        {
            "mesh" : 0,
            "name" : "78_calabaza"
        }
    ],
    "materials" : [
        {
            "doubleSided" : true,
            "emissiveFactor" : [
                0,
                0,
                0
            ],
            "name" : "78_calabaza",
            "pbrMetallicRoughness" : {
                "baseColorTexture" : {
                    "index" : 0,
                    "texCoord" : 0
                },
                "metallicFactor" : 0,
                "roughnessFactor" : 0.5
            }
        }
    ],
    "meshes" : [
        {
            "name" : "tmp.o.059",
            "primitives" : [
                {
                    "attributes" : {
                        "POSITION" : 0,
                        "NORMAL" : 1,
                        "TEXCOORD_0" : 2,
                        "JOINTS_0" : 3,
                        "WEIGHTS_0" : 4
                    },
                    "indices" : 5,
                    "material" : 0
                }
            ]
        }
    ],
    "textures" : [
        {
            "source" : 0
        }
    ],
    "images" : [
        {
            "bufferView" : 6,
            "mimeType" : "image/jpeg",
            "name" : "78_calabaza_albedo"
        }
    ],
    "accessors" : [
        {
            "bufferView" : 0,
            "componentType" : 5126,
            "count" : 731,
            "max" : [
                0.6420891284942627,
                0.3041730225086212,
                0.2958655059337616
            ],
            "min" : [
                -0.7255887389183044,
                -0.3209474980831146,
                -0.35128873586654663
            ],
            "type" : "VEC3"
        },
        {
            "bufferView" : 1,
            "componentType" : 5126,
            "count" : 731,
            "type" : "VEC3"
        },
        {
            "bufferView" : 2,
            "componentType" : 5126,
            "count" : 731,
            "type" : "VEC2"
        },
        {
            "bufferView" : 3,
            "componentType" : 5123,
            "count" : 731,
            "type" : "VEC4"
        },
        {
            "bufferView" : 4,
            "componentType" : 5126,
            "count" : 731,
            "type" : "VEC4"
        },
        {
            "bufferView" : 5,
            "componentType" : 5123,
            "count" : 3000,
            "type" : "SCALAR"
        }
    ],
    "bufferViews" : [
        {
            "buffer" : 0,
            "byteLength" : 8772,
            "byteOffset" : 0
        },
        {
            "buffer" : 0,
            "byteLength" : 8772,
            "byteOffset" : 8772
        },
        {
            "buffer" : 0,
            "byteLength" : 5848,
            "byteOffset" : 17544
        },
        {
            "buffer" : 0,
            "byteLength" : 5848,
            "byteOffset" : 23392
        },
        {
            "buffer" : 0,
            "byteLength" : 11696,
            "byteOffset" : 29240
        },
        {
            "buffer" : 0,
            "byteLength" : 6000,
            "byteOffset" : 40936
        },
        {
            "buffer" : 0,
            "byteLength" : 151497,
            "byteOffset" : 46936
        }
    ],
    "buffers" : [
        {
            "byteLength" : 198436,
            "uri" : "data:application/octet-stream;base64,"
        }
    ]
}
