{
    "asset" : {
        "generator" : "Khronos glTF Blender I/O v1.1.46",
        "version" : "2.0"
    },
    "scene" : 0,
    "scenes" : [
        {
            "name" : "Scene",
            "nodes" : [
                0
            ]
        }
    ],
    "nodes" : [
        {
            "mesh" : 0,
            "name" : "09_pepper"
        }
    ],
    "materials" : [
        {
            "doubleSided" : true,
            "emissiveFactor" : [
                0,
                0,
                0
            ],
            "name" : "09_pepper",
            "pbrMetallicRoughness" : {
                "baseColorTexture" : {
                    "index" : 0,
                    "texCoord" : 0
                },
                "metallicFactor" : 0,
                "roughnessFactor" : 0.5
            }
        }
    ],
    "meshes" : [
        {
            "name" : "tmp.o.055",
            "primitives" : [
                {
                    "attributes" : {
                        "POSITION" : 0,
                        "NORMAL" : 1,
                        "TEXCOORD_0" : 2,
                        "JOINTS_0" : 3,
                        "WEIGHTS_0" : 4
                    },
                    "indices" : 5,
                    "material" : 0
                }
            ]
        }
    ],
    "textures" : [
        {
            "source" : 0
        }
    ],
    "images" : [
        {
            "bufferView" : 6,
            "mimeType" : "image/jpeg",
            "name" : "09_pepper_albedo"
        }
    ],
    "accessors" : [
        {
            "bufferView" : 0,
            "componentType" : 5126,
            "count" : 719,
            "max" : [
                0.5054048299789429,
                0.18558895587921143,
                0.2079753428697586
            ],
            "min" : [
                -0.4914194643497467,
                -0.18612709641456604,
                -0.23567558825016022
            ],
            "type" : "VEC3"
        },
        {
            "bufferView" : 1,
            "componentType" : 5126,
            "count" : 719,
            "type" : "VEC3"
        },
        {
            "bufferView" : 2,
            "componentType" : 5126,
            "count" : 719,
            "type" : "VEC2"
        },
        {
            "bufferView" : 3,
            "componentType" : 5123,
            "count" : 719,
            "type" : "VEC4"
        },
        {
            "bufferView" : 4,
            "componentType" : 5126,
            "count" : 719,
            "type" : "VEC4"
        },
        {
            "bufferView" : 5,
            "componentType" : 5123,
            "count" : 3000,
            "type" : "SCALAR"
        }
    ],
    "bufferViews" : [
        {
            "buffer" : 0,
            "byteLength" : 8628,
            "byteOffset" : 0
        },
        {
            "buffer" : 0,
            "byteLength" : 8628,
            "byteOffset" : 8628
        },
        {
            "buffer" : 0,
            "byteLength" : 5752,
            "byteOffset" : 17256
        },
        {
            "buffer" : 0,
            "byteLength" : 5752,
            "byteOffset" : 23008
        },
        {
            "buffer" : 0,
            "byteLength" : 11504,
            "byteOffset" : 28760
        },
        {
            "buffer" : 0,
            "byteLength" : 6000,
            "byteOffset" : 40264
        },
        {
            "buffer" : 0,
            "byteLength" : 153357,
            "byteOffset" : 46264
        }
    ],
    "buffers" : [
        {
            "byteLength" : 199624,
            "uri" : "data:application/octet-stream;base64,"
        }
    ]
}
