{
    "asset" : {
        "generator" : "Khronos glTF Blender I/O v1.1.46",
        "version" : "2.0"
    },
    "scene" : 0,
    "scenes" : [
        {
            "name" : "Scene",
            "nodes" : [
                0
            ]
        }
    ],
    "nodes" : [
        {
            "mesh" : 0,
            "name" : "10_zucchini"
        }
    ],
    "materials" : [
        {
            "doubleSided" : true,
            "emissiveFactor" : [
                0,
                0,
                0
            ],
            "name" : "10_zucchini",
            "pbrMetallicRoughness" : {
                "baseColorTexture" : {
                    "index" : 0,
                    "texCoord" : 0
                },
                "metallicFactor" : 0,
                "roughnessFactor" : 0.5
            }
        }
    ],
    "meshes" : [
        {
            "name" : "tmp.o.072",
            "primitives" : [
                {
                    "attributes" : {
                        "POSITION" : 0,
                        "NORMAL" : 1,
                        "TEXCOORD_0" : 2,
                        "JOINTS_0" : 3,
                        "WEIGHTS_0" : 4
                    },
                    "indices" : 5,
                    "material" : 0
                }
            ]
        }
    ],
    "textures" : [
        {
            "source" : 0
        }
    ],
    "images" : [
        {
            "bufferView" : 6,
            "mimeType" : "image/jpeg",
            "name" : "10_zucchini_albedo"
        }
    ],
    "accessors" : [
        {
            "bufferView" : 0,
            "componentType" : 5126,
            "count" : 727,
            "max" : [
                0.7333540916442871,
                0.22712470591068268,
                0.2548544108867645
            ],
            "min" : [
                -0.6176320314407349,
                -0.26114559173583984,
                -0.22102567553520203
            ],
            "type" : "VEC3"
        },
        {
            "bufferView" : 1,
            "componentType" : 5126,
            "count" : 727,
            "type" : "VEC3"
        },
        {
            "bufferView" : 2,
            "componentType" : 5126,
            "count" : 727,
            "type" : "VEC2"
        },
        {
            "bufferView" : 3,
            "componentType" : 5123,
            "count" : 727,
            "type" : "VEC4"
        },
        {
            "bufferView" : 4,
            "componentType" : 5126,
            "count" : 727,
            "type" : "VEC4"
        },
        {
            "bufferView" : 5,
            "componentType" : 5123,
            "count" : 3000,
            "type" : "SCALAR"
        }
    ],
    "bufferViews" : [
        {
            "buffer" : 0,
            "byteLength" : 8724,
            "byteOffset" : 0
        },
        {
            "buffer" : 0,
            "byteLength" : 8724,
            "byteOffset" : 8724
        },
        {
            "buffer" : 0,
            "byteLength" : 5816,
            "byteOffset" : 17448
        },
        {
            "buffer" : 0,
            "byteLength" : 5816,
            "byteOffset" : 23264
        },
        {
            "buffer" : 0,
            "byteLength" : 11632,
            "byteOffset" : 29080
        },
        {
            "buffer" : 0,
            "byteLength" : 6000,
            "byteOffset" : 40712
        },
        {
            "buffer" : 0,
            "byteLength" : 244194,
            "byteOffset" : 46712
        }
    ],
    "buffers" : [
        {
            "byteLength" : 290908,
            "uri" : "data:application/octet-stream;base64,"
        }
    ]
}
