{
    "asset" : {
        "generator" : "Khronos glTF Blender I/O v1.1.46",
        "version" : "2.0"
    },
    "scene" : 0,
    "scenes" : [
        {
            "name" : "Scene",
            "nodes" : [
                0
            ]
        }
    ],
    "nodes" : [
        {
            "mesh" : 0,
            "name" : "21_napa_cabbage"
        }
    ],
    "materials" : [
        {
            "doubleSided" : true,
            "emissiveFactor" : [
                0,
                0,
                0
            ],
            "name" : "21_napa_cabbage",
            "pbrMetallicRoughness" : {
                "baseColorTexture" : {
                    "index" : 0,
                    "texCoord" : 0
                },
                "metallicFactor" : 0,
                "roughnessFactor" : 0.5
            }
        }
    ],
    "meshes" : [
        {
            "name" : "tmp.o.076",
            "primitives" : [
                {
                    "attributes" : {
                        "POSITION" : 0,
                        "NORMAL" : 1,
                        "TEXCOORD_0" : 2,
                        "JOINTS_0" : 3,
                        "WEIGHTS_0" : 4
                    },
                    "indices" : 5,
                    "material" : 0
                }
            ]
        }
    ],
    "textures" : [
        {
            "source" : 0
        }
    ],
    "images" : [
        {
            "bufferView" : 6,
            "mimeType" : "image/jpeg",
            "name" : "21_napa_cabbage_albedo"
        }
    ],
    "accessors" : [
        {
            "bufferView" : 0,
            "componentType" : 5126,
            "count" : 965,
            "max" : [
                0.6416164636611938,
                0.376913845539093,
                0.40012532472610474
            ],
            "min" : [
                -0.6365458369255066,
                -0.3312003016471863,
                -0.3676377832889557
            ],
            "type" : "VEC3"
        },
        {
            "bufferView" : 1,
            "componentType" : 5126,
            "count" : 965,
            "type" : "VEC3"
        },
        {
            "bufferView" : 2,
            "componentType" : 5126,
            "count" : 965,
            "type" : "VEC2"
        },
        {
            "bufferView" : 3,
            "componentType" : 5123,
            "count" : 965,
            "type" : "VEC4"
        },
        {
            "bufferView" : 4,
            "componentType" : 5126,
            "count" : 965,
            "type" : "VEC4"
        },
        {
            "bufferView" : 5,
            "componentType" : 5123,
            "count" : 3000,
            "type" : "SCALAR"
        }
    ],
    "bufferViews" : [
        {
            "buffer" : 0,
            "byteLength" : 11580,
            "byteOffset" : 0
        },
        {
            "buffer" : 0,
            "byteLength" : 11580,
            "byteOffset" : 11580
        },
        {
            "buffer" : 0,
            "byteLength" : 7720,
            "byteOffset" : 23160
        },
        {
            "buffer" : 0,
            "byteLength" : 7720,
            "byteOffset" : 30880
        },
        {
            "buffer" : 0,
            "byteLength" : 15440,
            "byteOffset" : 38600
        },
        {
            "buffer" : 0,
            "byteLength" : 6000,
            "byteOffset" : 54040
        },
        {
            "buffer" : 0,
            "byteLength" : 211906,
            "byteOffset" : 60040
        }
    ],
    "buffers" : [
        {
            "byteLength" : 271948,
            "uri" : "data:application/octet-stream;base64,"
        }
    ]
}
