{
    "asset" : {
        "generator" : "Khronos glTF Blender I/O v1.1.46",
        "version" : "2.0"
    },
    "scene" : 0,
    "scenes" : [
        {
            "name" : "Scene",
            "nodes" : [
                0
            ]
        }
    ],
    "nodes" : [
        {
            "mesh" : 0,
            "name" : "pear03_lr"
        }
    ],
    "materials" : [
        {
            "doubleSided" : true,
            "emissiveFactor" : [
                0,
                0,
                0
            ],
            "name" : "pear03_lr",
            "normalTexture" : {
                "index" : 0,
                "texCoord" : 0
            },
            "pbrMetallicRoughness" : {
                "baseColorFactor" : [
                    0.5,
                    0.5,
                    0.5,
                    1
                ],
                "baseColorTexture" : {
                    "index" : 1,
                    "texCoord" : 0
                },
                "metallicFactor" : 0,
                "roughnessFactor" : 0.5
            }
        }
    ],
    "meshes" : [
        {
            "name" : "tmp.o.089",
            "primitives" : [
                {
                    "attributes" : {
                        "POSITION" : 0,
                        "NORMAL" : 1,
                        "TEXCOORD_0" : 2,
                        "JOINTS_0" : 3,
                        "WEIGHTS_0" : 4
                    },
                    "indices" : 5,
                    "material" : 0
                }
            ]
        }
    ],
    "textures" : [
        {
            "source" : 0
        },
        {
            "source" : 1
        }
    ],
    "images" : [
        {
            "bufferView" : 6,
            "mimeType" : "image/jpeg",
            "name" : "pear03_lr_normals"
        },
        {
            "bufferView" : 7,
            "mimeType" : "image/jpeg",
            "name" : "pear03_lr_albedo"
        }
    ],
    "accessors" : [
        {
            "bufferView" : 0,
            "componentType" : 5126,
            "count" : 753,
            "max" : [
                0.23704175651073456,
                0.6986203789710999,
                0.2503577172756195
            ],
            "min" : [
                -0.22370296716690063,
                -0.29568836092948914,
                -0.22665415704250336
            ],
            "type" : "VEC3"
        },
        {
            "bufferView" : 1,
            "componentType" : 5126,
            "count" : 753,
            "type" : "VEC3"
        },
        {
            "bufferView" : 2,
            "componentType" : 5126,
            "count" : 753,
            "type" : "VEC2"
        },
        {
            "bufferView" : 3,
            "componentType" : 5123,
            "count" : 753,
            "type" : "VEC4"
        },
        {
            "bufferView" : 4,
            "componentType" : 5126,
            "count" : 753,
            "type" : "VEC4"
        },
        {
            "bufferView" : 5,
            "componentType" : 5123,
            "count" : 3000,
            "type" : "SCALAR"
        }
    ],
    "bufferViews" : [
        {
            "buffer" : 0,
            "byteLength" : 9036,
            "byteOffset" : 0
        },
        {
            "buffer" : 0,
            "byteLength" : 9036,
            "byteOffset" : 9036
        },
        {
            "buffer" : 0,
            "byteLength" : 6024,
            "byteOffset" : 18072
        },
        {
            "buffer" : 0,
            "byteLength" : 6024,
            "byteOffset" : 24096
        },
        {
            "buffer" : 0,
            "byteLength" : 12048,
            "byteOffset" : 30120
        },
        {
            "buffer" : 0,
            "byteLength" : 6000,
            "byteOffset" : 42168
        },
        {
            "buffer" : 0,
            "byteLength" : 132840,
            "byteOffset" : 48168
        },
        {
            "buffer" : 0,
            "byteLength" : 184421,
            "byteOffset" : 181008
        }
    ],
    "buffers" : [
        {
            "byteLength" : 365432,
            "uri" : "data:application/octet-stream;base64,"
        }
    ]
}
