{
    "asset" : {
        "generator" : "Khronos glTF Blender I/O v1.1.46",
        "version" : "2.0"
    },
    "scene" : 0,
    "scenes" : [
        {
            "name" : "Scene",
            "nodes" : [
                0
            ]
        }
    ],
    "nodes" : [
        {
            "mesh" : 0,
            "name" : "71_peach"
        }
    ],
    "materials" : [
        {
            "doubleSided" : true,
            "emissiveFactor" : [
                0,
                0,
                0
            ],
            "name" : "71_peach",
            "pbrMetallicRoughness" : {
                "baseColorTexture" : {
                    "index" : 0,
                    "texCoord" : 0
                },
                "metallicFactor" : 0,
                "roughnessFactor" : 0.5
            }
        }
    ],
    "meshes" : [
        {
            "name" : "tmp.o.067",
            "primitives" : [
                {
                    "attributes" : {
                        "POSITION" : 0,
                        "NORMAL" : 1,
                        "TEXCOORD_0" : 2,
                        "JOINTS_0" : 3,
                        "WEIGHTS_0" : 4
                    },
                    "indices" : 5,
                    "material" : 0
                }
            ]
        }
    ],
    "textures" : [
        {
            "source" : 0
        }
    ],
    "images" : [
        {
            "bufferView" : 6,
            "mimeType" : "image/jpeg",
            "name" : "71_peach_albedo"
        }
    ],
    "accessors" : [
        {
            "bufferView" : 0,
            "componentType" : 5126,
            "count" : 680,
            "max" : [
                0.4905775189399719,
                0.40714898705482483,
                0.4949948191642761
            ],
            "min" : [
                -0.5010283589363098,
                -0.47159677743911743,
                -0.4974963665008545
            ],
            "type" : "VEC3"
        },
        {
            "bufferView" : 1,
            "componentType" : 5126,
            "count" : 680,
            "type" : "VEC3"
        },
        {
            "bufferView" : 2,
            "componentType" : 5126,
            "count" : 680,
            "type" : "VEC2"
        },
        {
            "bufferView" : 3,
            "componentType" : 5123,
            "count" : 680,
            "type" : "VEC4"
        },
        {
            "bufferView" : 4,
            "componentType" : 5126,
            "count" : 680,
            "type" : "VEC4"
        },
        {
            "bufferView" : 5,
            "componentType" : 5123,
            "count" : 3000,
            "type" : "SCALAR"
        }
    ],
    "bufferViews" : [
        {
            "buffer" : 0,
            "byteLength" : 8160,
            "byteOffset" : 0
        },
        {
            "buffer" : 0,
            "byteLength" : 8160,
            "byteOffset" : 8160
        },
        {
            "buffer" : 0,
            "byteLength" : 5440,
            "byteOffset" : 16320
        },
        {
            "buffer" : 0,
            "byteLength" : 5440,
            "byteOffset" : 21760
        },
        {
            "buffer" : 0,
            "byteLength" : 10880,
            "byteOffset" : 27200
        },
        {
            "buffer" : 0,
            "byteLength" : 6000,
            "byteOffset" : 38080
        },
        {
            "buffer" : 0,
            "byteLength" : 143826,
            "byteOffset" : 44080
        }
    ],
    "buffers" : [
        {
            "byteLength" : 187908,
            "uri" : "data:application/octet-stream;base64,"
        }
    ]
}
