{
    "asset" : {
        "generator" : "Khronos glTF Blender I/O v1.1.46",
        "version" : "2.0"
    },
    "scene" : 0,
    "scenes" : [
        {
            "name" : "Scene",
            "nodes" : [
                0
            ]
        }
    ],
    "nodes" : [
        {
            "mesh" : 0,
            "name" : "15_artichoke"
        }
    ],
    "materials" : [
        {
            "doubleSided" : true,
            "emissiveFactor" : [
                0,
                0,
                0
            ],
            "name" : "15_artichoke",
            "pbrMetallicRoughness" : {
                "baseColorTexture" : {
                    "index" : 0,
                    "texCoord" : 0
                },
                "metallicFactor" : 0,
                "roughnessFactor" : 0.5
            }
        }
    ],
    "meshes" : [
        {
            "name" : "tmp.o.005",
            "primitives" : [
                {
                    "attributes" : {
                        "POSITION" : 0,
                        "NORMAL" : 1,
                        "TEXCOORD_0" : 2,
                        "JOINTS_0" : 3,
                        "WEIGHTS_0" : 4
                    },
                    "indices" : 5,
                    "material" : 0
                }
            ]
        }
    ],
    "textures" : [
        {
            "source" : 0
        }
    ],
    "images" : [
        {
            "bufferView" : 6,
            "mimeType" : "image/jpeg",
            "name" : "15_artichoke_albedo"
        }
    ],
    "accessors" : [
        {
            "bufferView" : 0,
            "componentType" : 5126,
            "count" : 1058,
            "max" : [
                0.7549936771392822,
                0.34039589762687683,
                0.35012567043304443
            ],
            "min" : [
                -0.43303385376930237,
                -0.32715123891830444,
                -0.3217252790927887
            ],
            "type" : "VEC3"
        },
        {
            "bufferView" : 1,
            "componentType" : 5126,
            "count" : 1058,
            "type" : "VEC3"
        },
        {
            "bufferView" : 2,
            "componentType" : 5126,
            "count" : 1058,
            "type" : "VEC2"
        },
        {
            "bufferView" : 3,
            "componentType" : 5123,
            "count" : 1058,
            "type" : "VEC4"
        },
        {
            "bufferView" : 4,
            "componentType" : 5126,
            "count" : 1058,
            "type" : "VEC4"
        },
        {
            "bufferView" : 5,
            "componentType" : 5123,
            "count" : 3000,
            "type" : "SCALAR"
        }
    ],
    "bufferViews" : [
        {
            "buffer" : 0,
            "byteLength" : 12696,
            "byteOffset" : 0
        },
        {
            "buffer" : 0,
            "byteLength" : 12696,
            "byteOffset" : 12696
        },
        {
            "buffer" : 0,
            "byteLength" : 8464,
            "byteOffset" : 25392
        },
        {
            "buffer" : 0,
            "byteLength" : 8464,
            "byteOffset" : 33856
        },
        {
            "buffer" : 0,
            "byteLength" : 16928,
            "byteOffset" : 42320
        },
        {
            "buffer" : 0,
            "byteLength" : 6000,
            "byteOffset" : 59248
        },
        {
            "buffer" : 0,
            "byteLength" : 283016,
            "byteOffset" : 65248
        }
    ],
    "buffers" : [
        {
            "byteLength" : 348264,
            "uri" : "data:application/octet-stream;base64,"
        }
    ]
}
